<?xml version="1.0" encoding="UTF-8" standalone="no"?> <!-- Created with Inkscape (http://www.inkscape.org/) --> <svg xmlns:dc="http://purl.org/dc/elements/1.1/" xmlns:cc="http://creativecommons.org/ns#" xmlns:rdf="http://www.w3.org/1999/02/22-rdf-syntax-ns#" xmlns:svg="http://www.w3.org/2000/svg" xmlns="http://www.w3.org/2000/svg" xmlns:sodipodi="http://sodipodi.sourceforge.net/DTD/sodipodi-0.dtd" xmlns:inkscape="http://www.inkscape.org/namespaces/inkscape" id="svg2" xml:space="preserve" width="700" height="525" viewBox="0 0 700 525" sodipodi:docname="Vector_1533.svg" inkscape:version="0.92.3 (2405546, 2018-03-11)"><metadata id="metadata8"></metadata><defs id="defs6"><clipPath id="clipPath24"><path d="m 6057.65,7930.34 h -426.78 l -323.76,-3.54 -316.4,17.67 -88.3,14.14 -152.06,-14.14 -191.32,-7.07 h -66.22 l -12.27,-49.48 4.91,-201.46 -9.81,-155.51 9.81,-491.28 4.9,-325.16 4.91,-35.34 137.35,7.06 279.61,3.53 309.05,7.08 394.89,14.13 358.09,-3.53 h 340.95 l 424.31,-3.53 228.1,3.53 h 132.46 l 71.12,-7.07 88.29,-14.14 103.02,21.21 h 112.83 l 46.6,14.14 -4.9,360.5 -7.36,300.42 -2.46,240.35 17.17,109.56 -4.91,120.17 v 53.02 l -51.49,35.34 -210.95,-21.21 -286.96,-3.53 -497.91,7.07 z" id="path22" inkscape:connector-curvature="0"></path></clipPath><radialGradient fx="0" fy="0" cx="0" cy="0" r="1" gradientUnits="userSpaceOnUse" gradientTransform="matrix(1122.67,0,0,-1617.85,6000.01,7318.89)" spreadMethod="pad" id="radialGradient32"><stop style="stop-opacity:1;stop-color:#f7f685" offset="0" id="stop26"></stop><stop style="stop-opacity:1;stop-color:#f7f685" offset="0.44103163" id="stop28"></stop><stop style="stop-opacity:1;stop-color:#fbd153" offset="1" id="stop30"></stop></radialGradient><clipPath id="clipPath42"><path d="m 10051,6384.89 h -426.8 l -323.75,-3.59 -316.41,17.95 -88.29,14.36 -152.08,-14.36 -191.31,-7.18 h -66.21 l -12.27,-50.25 4.9,-204.61 -9.81,-157.95 9.81,-498.95 4.91,-330.25 4.9,-35.89 137.36,7.17 279.61,3.59 309.04,7.18 394.89,14.36 358.1,-3.59 h 340.91 l 424.3,-3.59 228.1,3.59 h 132.5 l 71.1,-7.18 88.3,-14.36 103,21.54 h 112.9 l 46.6,14.36 -4.9,366.14 -7.4,305.12 -2.5,244.1 17.2,111.27 -4.9,122.05 v 53.85 l -51.5,35.89 -210.9,-21.53 -287,-3.59 -497.9,7.17 z" id="path40" inkscape:connector-curvature="0"></path></clipPath><radialGradient fx="0" fy="0" cx="0" cy="0" r="1" gradientUnits="userSpaceOnUse" gradientTransform="matrix(1122.67,0,0,-1643.13,9993.34,5763.89)" spreadMethod="pad" id="radialGradient50"><stop style="stop-opacity:1;stop-color:#fbc809" offset="0" id="stop44"></stop><stop style="stop-opacity:1;stop-color:#fbc809" offset="0.34792248" id="stop46"></stop><stop style="stop-opacity:1;stop-color:#f79811" offset="1" id="stop48"></stop></radialGradient><clipPath id="clipPath60"><path d="m 10062.1,3875 h -428.88 l -325.35,-3.58 -317.96,17.88 -88.73,14.32 -152.81,-14.32 -192.27,-7.16 h -66.55 l -12.31,-50.04 4.92,-203.82 -9.86,-157.34 9.86,-497.04 4.93,-328.97 4.93,-35.76 138.03,7.15 280.99,3.57 310.56,7.16 396.84,14.29 359.85,-3.57 h 342.61 l 426.4,-3.59 229.2,3.59 h 133.1 l 71.5,-7.16 88.8,-14.29 103.5,21.45 h 113.3 l 46.9,14.31 -4.9,364.72 -7.4,303.95 -2.5,243.15 17.2,110.85 -4.9,121.59 v 53.63 l -51.7,35.76 -212,-21.45 -288.4,-3.58 -500.3,7.16 z" id="path58" inkscape:connector-curvature="0"></path></clipPath><radialGradient fx="0" fy="0" cx="0" cy="0" r="1" gradientUnits="userSpaceOnUse" gradientTransform="matrix(1128.19,0,0,-1636.85,10004.2,3256.39)" spreadMethod="pad" id="radialGradient68"><stop style="stop-opacity:1;stop-color:#f78f13" offset="0" id="stop62"></stop><stop style="stop-opacity:1;stop-color:#f78f13" offset="0.40186379" id="stop64"></stop><stop style="stop-opacity:1;stop-color:#d64321" offset="1" id="stop66"></stop></radialGradient><clipPath id="clipPath78"><path d="m 6055.43,2393.45 h -428.87 l -325.35,-3.56 -317.96,17.8 -88.74,14.25 -152.82,-14.25 -192.25,-7.11 h -66.55 l -12.32,-49.88 4.93,-203.03 -9.86,-156.74 9.86,-495.11 4.92,-327.71 4.93,-35.61 138.03,7.11 280.99,3.57 310.57,7.13 396.83,14.24 359.86,-3.57 h 342.62 l 426.39,-3.54 229.23,3.54 h 133.11 l 71.47,-7.11 88.73,-14.26 103.53,21.37 h 113.38 l 46.82,14.25 -4.92,363.33 -7.4,302.77 -2.46,242.23 17.25,110.41 -4.93,121.1 v 53.45 l -51.75,35.63 -211.99,-21.4 -288.38,-3.55 -500.35,7.11 z" id="path76" inkscape:connector-curvature="0"></path></clipPath><radialGradient fx="0" fy="0" cx="0" cy="0" r="1" gradientUnits="userSpaceOnUse" gradientTransform="matrix(1128.19,0,0,-1630.53,5997.51,1777.22)" spreadMethod="pad" id="radialGradient86"><stop style="stop-opacity:1;stop-color:#ec1e26" offset="0" id="stop80"></stop><stop style="stop-opacity:1;stop-color:#ec1e26" offset="0.3751445" id="stop82"></stop><stop style="stop-opacity:1;stop-color:#9a1b21" offset="1" id="stop84"></stop></radialGradient><clipPath id="clipPath96"><path d="m 2120.63,3881.32 h -430.28 l -326.42,-3.62 -318.99,18.1 -89.026,14.47 -153.316,-14.47 -192.887,-7.23 h -66.762 l -12.363,-50.67 4.941,-206.26 -9.886,-159.24 9.886,-503 4.946,-332.91 4.949,-36.19 138.48,7.22 281.899,3.63 311.579,7.24 398.13,14.48 361.03,-3.63 h 343.73 l 427.81,-3.6 229.97,3.6 h 133.53 l 71.71,-7.22 89.02,-14.5 103.87,21.72 h 113.75 l 46.98,14.48 -4.95,369.11 -7.41,307.59 -2.48,246.09 17.31,112.17 -4.95,123.02 v 54.3 l -51.92,36.19 -212.67,-21.73 -289.32,-3.61 -501.99,7.23 z" id="path94" inkscape:connector-curvature="0"></path></clipPath><radialGradient fx="0" fy="0" cx="0" cy="0" r="1" gradientUnits="userSpaceOnUse" gradientTransform="matrix(1131.88,0,0,-1656.38,2062.51,3255.29)" spreadMethod="pad" id="radialGradient104"><stop style="stop-opacity:1;stop-color:#a21688" offset="0" id="stop98"></stop><stop style="stop-opacity:1;stop-color:#a21688" offset="0.46656709" id="stop100"></stop><stop style="stop-opacity:1;stop-color:#591f78" offset="1" id="stop102"></stop></radialGradient><clipPath id="clipPath114"><path d="M 2123.58,6376.8 H 1696.1 l -324.29,-3.56 -316.92,17.8 -88.445,14.23 -152.312,-14.23 -191.633,-7.11 h -66.328 l -12.285,-49.84 4.914,-202.86 -9.824,-156.61 9.824,-494.71 4.91,-327.42 4.91,-35.59 137.586,7.11 280.066,3.56 309.557,7.12 395.54,14.24 358.67,-3.56 h 341.5 l 425.01,-3.55 228.49,3.55 h 132.66 l 71.25,-7.11 88.44,-14.25 103.19,21.36 h 113 l 46.67,14.23 -4.9,363.03 -7.37,302.52 -2.46,242.02 17.19,110.32 -4.91,121.01 v 53.4 l -51.58,35.59 -211.29,-21.37 -287.43,-3.55 -498.73,7.11 z" id="path112" inkscape:connector-curvature="0"></path></clipPath><radialGradient fx="0" fy="0" cx="0" cy="0" r="1" gradientUnits="userSpaceOnUse" gradientTransform="matrix(1124.52,0,0,-1629.01,2065.84,5761.09)" spreadMethod="pad" id="radialGradient122"><stop style="stop-opacity:1;stop-color:#9bdeea" offset="0" id="stop116"></stop><stop style="stop-opacity:1;stop-color:#9bdeea" offset="0.46656709" id="stop118"></stop><stop style="stop-opacity:1;stop-color:#4884b4" offset="1" id="stop120"></stop></radialGradient></defs><g id="g10" inkscape:groupmode="layer" inkscape:label="ink_ext_XXXXXX" transform="matrix(1.3333333,0,0,-1.3333333,0,524.99999)"><g id="g12" transform="scale(0.04375)"><path d="M 12000,0 H 0 V 9000 H 12000 V 0" style="fill:#ffffff;fill-opacity:1;fill-rule:evenodd;stroke:none" id="path14" inkscape:connector-curvature="0"></path><path d="m 7980.56,1746.82 c -11.56,-6.28 -22.82,-13.38 -34.56,-19.3 10.05,13.84 22.77,25.57 32.69,39.12 1.22,0 2.47,-0.05 3.7,-0.05 -0.58,-6.54 -1.13,-13.18 -1.83,-19.77 z m 5.23,81.85 c 0,-4.68 -0.35,-9.18 -0.52,-13.81 -1.31,0.56 -2.64,1.06 -4.27,1.06 -6.7,0.06 -12.41,-1.06 -17.8,-2.67 8.18,8.95 15.96,18.15 22.88,27.88 -0.11,-4.08 -0.29,-8.39 -0.29,-12.46 z m -19.9,28.63 c -10.51,-16.08 -24.33,-30.59 -37.85,-45.28 -6.22,0.73 -12.54,1.67 -18.69,2.53 18.29,14.99 36.59,30.14 56.54,42.75 z m -27.29,12.18 c -14.42,-10.75 -28.2,-22.32 -42.29,-33.67 7.73,8.18 15.04,16.75 21.36,26.12 6.97,2.53 13.97,5.09 20.93,7.55 z m -124.36,-96.43 c -10.65,5.5 -21.19,11.33 -31.22,17.74 12.24,6.75 42.02,22.9 70.58,38.41 -14.21,-13.75 -28.16,-27.66 -38.47,-44.88 -2.22,-3.54 -2.23,-7.6 -0.89,-11.27 z m -41.96,46.53 c -4.36,-3.91 -8.14,-8.03 -11.38,-12.18 -3.01,2.57 -5.94,5.14 -8.66,8.02 6.46,1.59 13.24,2.88 20.04,4.16 z m 91.47,-71.62 c -10.64,5.82 -21.87,11.33 -33.32,17.01 12.96,4.61 24.65,11.02 35.82,18.05 10.64,-3.78 21.27,-6.56 32.13,-8.78 -2,-3.19 -4.07,-6.16 -5.72,-9.44 -6.26,-12.25 5.89,-22.72 17.69,-17.65 9.91,4.33 19.11,12.82 28.42,21.13 4.26,-0.41 8.41,-0.62 12.63,-0.76 -13.77,-17.89 -31.68,-34.43 -38.28,-55.93 -16.58,13.29 -32.76,27.1 -49.37,36.37 z m 111.87,-41.39 c -7.95,-5.92 -15.83,-11.61 -22.22,-17.3 -1.14,-1.04 -1.81,-2.39 -2.35,-3.62 -6.79,3.55 -13.31,7.76 -19.78,12.4 16.19,5.28 31.16,14.13 46.06,22.65 -0.53,-4.72 -1.11,-9.43 -1.71,-14.13 z m 6.87,-69.14 c 9.05,-1.42 21.05,2.22 22.73,13 3.29,20.28 5.98,40.06 8.48,59.67 10.99,10.91 19.88,23.09 23.08,38.82 1.81,8.88 -5.16,14.95 -13.75,13.6 -1.27,-0.08 -2.47,-0.49 -3.68,-0.82 0.11,1.81 0.3,3.57 0.47,5.36 16.48,0.31 32.98,0.81 49.21,0.81 71.12,-0.05 9.22,-0.72 80.08,0.46 148.37,2.48 1573.05,1.43 1721.13,-0.92 83.38,-1.23 153.16,13.93 183.16,100.52 8.1,23.49 -12.5,65.93 -11,87.59 2.1,30.68 4.9,61.49 5.4,92.27 1,71.69 7.3,142.92 10.9,214.45 7.8,153 -15.4,-93.99 -10.3,59.06 4.8,145.57 15.4,70.75 7.4,216.09 -2.2,40.76 -10.6,-382.29 -2,-261.8 4,55.75 18.1,-144.24 8.5,-88.96 -13.1,75.85 -26.5,250.78 -22.7,328.32 1.8,37.88 3.3,35.91 1.4,73.71 0,0.67 0,1.28 0,2 3.5,37.82 8.3,76.07 7.3,114.18 -0.6,22.27 -33.4,22.12 -34.5,0 -0.5,-10.85 -1.5,-19.09 -1.6,-27.54 -1.7,-28.97 -3.6,-57.76 -6.8,-86.64 -3.2,-29.66 -9.95,-19.57 1.6,-47.4 -5.6,-65.98 -5.2,-238.6 7.3,-302.63 25.3,-129.79 -6.9,-5.22 -3.2,-137.45 6.9,-251.56 -20.03,222.83 -1.7,-28.46 10.3,-142.72 -3,115.7 -7.9,-26.93 -1.94,-54.26 -5.04,-101.75 3.2,-154.16 14.9,-94.88 -154.16,-84.34 -201.66,-83.05 -126.31,3.55 -1527.64,4.87 -1653.93,3.23 -82.19,-1.08 -39.13,-8.93 -126.31,-7.69 0.41,7.43 1.01,15 1.42,22.55 1.34,31.39 9.32,63.72 4.16,94.66 -2.71,16.61 -26.1,13.52 -30.59,0 -1.57,-5.07 -2.78,-10.53 -4.16,-15.91 -45.52,0.87 -84.43,-16.3 -130.06,-27.86 -32.54,-8.34 -66.69,-24.03 -100.21,-27 -18.73,-1.73 -32.51,-4.57 -48.58,-14.78 -7.63,-4.88 -11.81,-15.89 -6.28,-23.97 33.69,-49.32 88.47,-66.3 137.29,-96.62 44.19,-27.37 83.43,-71.35 136.7,-79.76" style="fill:#231f20;fill-opacity:1;fill-rule:nonzero;stroke:none" id="path16" inkscape:connector-curvature="0"></path><g id="g18"><g id="g20" clip-path="url(#clipPath24)"><path d="m 6057.65,7930.34 h -426.78 l -323.76,-3.54 -316.4,17.67 -88.3,14.14 -152.06,-14.14 -191.32,-7.07 h -66.22 l -12.27,-49.48 4.91,-201.46 -9.81,-155.51 9.81,-491.28 4.9,-325.16 4.91,-35.34 137.35,7.06 279.61,3.53 309.05,7.08 394.89,14.13 358.09,-3.53 h 340.95 l 424.31,-3.53 228.1,3.53 h 132.46 l 71.12,-7.07 88.29,-14.14 103.02,21.21 h 112.83 l 46.6,14.14 -4.9,360.5 -7.36,300.42 -2.46,240.35 17.17,109.56 -4.91,120.17 v 53.02 l -51.49,35.34 -210.95,-21.21 -286.96,-3.53 -497.91,7.07 -414.51,7.07" style="fill:url(#radialGradient32);fill-opacity:1;fill-rule:nonzero;stroke:none" id="path34" inkscape:connector-curvature="0"></path></g></g><g id="g36"><g id="g38" clip-path="url(#clipPath42)"><path d="m 10051,6384.89 h -426.8 l -323.75,-3.59 -316.41,17.95 -88.29,14.36 -152.08,-14.36 -191.31,-7.18 h -66.21 l -12.27,-50.25 4.9,-204.61 -9.81,-157.95 9.81,-498.95 4.91,-330.25 4.9,-35.89 137.36,7.17 279.61,3.59 309.04,7.18 394.89,14.36 358.1,-3.59 h 340.91 l 424.3,-3.59 228.1,3.59 h 132.5 l 71.1,-7.18 88.3,-14.36 103,21.54 h 112.9 l 46.6,14.36 -4.9,366.14 -7.4,305.12 -2.5,244.1 17.2,111.27 -4.9,122.05 v 53.85 l -51.5,35.89 -210.9,-21.53 -287,-3.59 -497.9,7.17 -414.5,7.18" style="fill:url(#radialGradient50);fill-opacity:1;fill-rule:nonzero;stroke:none" id="path52" inkscape:connector-curvature="0"></path></g></g><g id="g54"><g id="g56" clip-path="url(#clipPath60)"><path d="m 10062.1,3875 h -428.88 l -325.35,-3.58 -317.96,17.88 -88.73,14.32 -152.81,-14.32 -192.27,-7.16 h -66.55 l -12.31,-50.04 4.92,-203.82 -9.86,-157.34 9.86,-497.04 4.93,-328.97 4.93,-35.76 138.03,7.15 280.99,3.57 310.56,7.16 396.84,14.29 359.85,-3.57 h 342.61 l 426.4,-3.59 229.2,3.59 h 133.1 l 71.5,-7.16 88.8,-14.29 103.5,21.45 h 113.3 l 46.9,14.31 -4.9,364.72 -7.4,303.95 -2.5,243.15 17.2,110.85 -4.9,121.59 v 53.63 l -51.7,35.76 -212,-21.45 -288.4,-3.58 -500.3,7.16 -416.6,7.14" style="fill:url(#radialGradient68);fill-opacity:1;fill-rule:nonzero;stroke:none" id="path70" inkscape:connector-curvature="0"></path></g></g><g id="g72"><g id="g74" clip-path="url(#clipPath78)"><path d="m 6055.43,2393.45 h -428.87 l -325.35,-3.56 -317.96,17.8 -88.74,14.25 -152.82,-14.25 -192.25,-7.11 h -66.55 l -12.32,-49.88 4.93,-203.03 -9.86,-156.74 9.86,-495.11 4.92,-327.71 4.93,-35.61 138.03,7.11 280.99,3.57 310.57,7.13 396.83,14.24 359.86,-3.57 h 342.62 l 426.39,-3.54 229.23,3.54 h 133.11 l 71.47,-7.11 88.73,-14.26 103.53,21.37 h 113.38 l 46.82,14.25 -4.92,363.33 -7.4,302.77 -2.46,242.23 17.25,110.41 -4.93,121.1 v 53.45 l -51.75,35.63 -211.99,-21.4 -288.38,-3.55 -500.35,7.11 -416.55,7.14" style="fill:url(#radialGradient86);fill-opacity:1;fill-rule:nonzero;stroke:none" id="path88" inkscape:connector-curvature="0"></path></g></g><g id="g90"><g id="g92" clip-path="url(#clipPath96)"><path d="m 2120.63,3881.32 h -430.28 l -326.42,-3.62 -318.99,18.1 -89.026,14.47 -153.316,-14.47 -192.887,-7.23 h -66.762 l -12.363,-50.67 4.941,-206.26 -9.886,-159.24 9.886,-503 4.946,-332.91 4.949,-36.19 138.48,7.22 281.899,3.63 311.579,7.24 398.13,14.48 361.03,-3.63 h 343.73 l 427.81,-3.6 229.97,3.6 h 133.53 l 71.71,-7.22 89.02,-14.5 103.87,21.72 h 113.75 l 46.98,14.48 -4.95,369.11 -7.41,307.59 -2.48,246.09 17.31,112.17 -4.95,123.02 v 54.3 l -51.92,36.19 -212.67,-21.73 -289.32,-3.61 -501.99,7.23 -417.9,7.24" style="fill:url(#radialGradient104);fill-opacity:1;fill-rule:nonzero;stroke:none" id="path106" inkscape:connector-curvature="0"></path></g></g><g id="g108"><g id="g110" clip-path="url(#clipPath114)"><path d="M 2123.58,6376.8 H 1696.1 l -324.29,-3.56 -316.92,17.8 -88.445,14.23 -152.312,-14.23 -191.633,-7.11 h -66.328 l -12.285,-49.84 4.914,-202.86 -9.824,-156.61 9.824,-494.71 4.91,-327.42 4.91,-35.59 137.586,7.11 280.066,3.56 309.557,7.12 395.54,14.24 358.67,-3.56 h 341.5 l 425.01,-3.55 228.49,3.55 h 132.66 l 71.25,-7.11 88.44,-14.25 103.19,21.36 h 113 l 46.67,14.23 -4.9,363.03 -7.37,302.52 -2.46,242.02 17.19,110.32 -4.91,121.01 v 53.4 l -51.58,35.59 -211.29,-21.37 -287.43,-3.55 -498.73,7.11 -415.19,7.12" style="fill:url(#radialGradient122);fill-opacity:1;fill-rule:nonzero;stroke:none" id="path124" inkscape:connector-curvature="0"></path></g></g><path d="m 11527.3,6400.58 c -19.8,-1.32 -30.3,11.73 -48,11.66 -35.1,-0.16 -70.3,-0.03 -105.5,-0.72 -58.4,-1.24 -116.7,-11.83 -175,-15.77 -133.9,-9.06 -1861.8,11.24 -1995.5,14.82 -116.69,3.09 -234.06,14.33 -350.68,11.24 -121.83,-3.22 -242.62,-16.2 -364.15,-13.69 0,-0.11 0.04,-0.21 0.04,-0.26 -7.67,0.24 -11.85,-7.76 -11.53,-15.83 0,-0.06 0,-0.06 0,-0.06 -21.57,-60.52 -9.02,-347.24 -8.33,-412.04 1.3,-120.41 -8.62,90.16 -10.38,-30.14 -3.54,-238.94 15.44,-593.21 15.37,-832.33 -0.06,-23.44 29.85,-23.44 29.64,0 -1.62,216.53 -16.5,548.03 -19.3,764.49 -1.46,111.47 7.62,-107.88 8.81,3.39 0.99,93.12 -18.36,400.37 -2.74,492.58 111.99,-8.49 223.97,2.72 336.37,7.25 125.53,5.12 251.29,-8.82 376.88,-11.04 124.78,-2.29 1843.2,-20.15 1968.2,-16.97 59.6,1.53 118.8,10.55 178.3,15.3 52.7,4.19 104.7,-9.78 156.1,-10.92 -3.5,-29.77 0.2,-258.51 1.6,-288.52 3.1,-66.7 -13.8,-141.39 -15.1,-209.2 -3,-153.67 4.2,-210.23 7.3,-363.9 2.8,-145.39 6.9,-176.38 4.1,-321.76 -0.2,-6.57 -0.4,-14.42 0,-22.33 -52.7,-7.81 -101.6,2.3 -154.3,-11.64 -58.2,-15.49 -115.1,2.76 -172.8,10.19 -117,15.1 -1833.32,-6.53 -1950.83,-7.65 -133.88,-1.29 -267.71,-6.35 -401.57,-7.9 -103.52,-1.12 -214.45,14.14 -313.72,-18.84 -9.07,-3 -5.03,-18.34 3.77,-16.79 117.35,21.42 243.33,4.86 362.63,4.52 134.37,-0.43 1863.52,4.05 1997.92,3.71 118.4,-0.3 238.1,19.7 355.4,-7.68 42.5,-10.07 85.7,-8.19 128.2,0.42 51.2,10.22 106,-6.35 153.2,18.6 1.9,-3.01 4,-5.69 6.9,-7.73 4.5,-3.27 16,4.9 18.2,2.37 0.1,-0.12 0.3,0.05 0.2,0.21 -0.8,1.88 -1.5,3.86 -2.2,5.74 -0.1,5.4 -3.4,8.73 -7.5,9.24 4.9,-0.68 2.4,683.08 1.9,731.16 -1,109.97 -4.3,-109.87 -4,0.06 0.1,52.57 5.3,103.81 10.9,155.81 4.9,46.23 -5.1,293.58 2.2,338.63 0.5,3.53 0.3,6.79 -0.4,9.67 8.5,11.13 5,33.77 -10.6,32.65" style="fill:#211d1d;fill-opacity:1;fill-rule:nonzero;stroke:none" id="path126" inkscape:connector-curvature="0"></path><path d="m 10013,4193.33 c -1.7,-1.6 -3.4,-3.25 -5.1,-4.83 0,1.69 0.1,3.36 0.1,5.05 1.7,-0.13 3.4,-0.13 5,-0.22 z m 96.3,-19.56 h 0.1 c -12.9,-18.49 -25.6,-37.18 -39.1,-55.1 11.7,18.64 23.9,37.06 32.5,57.27 1.5,-1.77 3.9,-2.8 6.5,-2.17 z m -74,-2.08 c 3.5,6.06 6.7,12.21 9.7,18.47 2.5,-0.29 5,-0.49 7.5,-0.79 -6,-5.49 -11.7,-11.37 -17.2,-17.68 z m -91.34,-67.06 c 13.6,8 25.86,17.37 37.58,27.48 -0.24,-5.52 -0.57,-10.76 -0.87,-15.84 -2.19,-5.54 -4.21,-11.2 -5.86,-16.98 -1.6,-5.66 1.28,-10.19 5.45,-12.29 0.3,-4.01 0.71,-8.09 1.39,-12.08 -5.49,4.65 -11.51,9.18 -17.83,13.81 -6.89,5.01 -13.43,10.37 -19.86,15.9 z m -46.35,44.56 c 13.17,12.99 26.59,29.91 41.54,40.41 -10.98,-18.58 -21.48,-37.1 -24.22,-57.74 -5.79,5.74 -11.5,11.5 -17.32,17.33 z m -9.4,25.48 c -0.09,4.94 -0.35,9.87 -0.31,14.77 5.74,0.86 11.51,1.66 17.31,2.31 -5.57,-5.78 -11.24,-11.54 -17,-17.08 z m 51.19,-44.66 c 3.73,22.56 20.26,45.12 31.82,64.98 3.64,0 7.28,-0.11 10.94,-0.22 -0.05,-10.23 -0.11,-20.49 -0.16,-30.78 -13.33,-12.38 -27.1,-24.11 -42.6,-33.98 z m -126.23,80.58 c -15.77,-4.78 -17.48,-24.8 -4.34,-33.61 36.96,-24.77 67.11,-55.68 99.56,-85.73 25.66,-23.73 76.86,-35.5 91.44,-68.5 2.17,-4.97 10.97,-2.56 10.37,2.86 -0.2,3.12 -0.9,5.97 -1.5,8.79 4.6,2.23 8.1,7.49 7.2,13.6 -3.1,19.1 -4.8,38.68 -6.1,58.47 22.4,26.86 42.2,60.63 71.1,78.63 0.7,-0.15 1.4,-0.2 2.1,-0.35 -17.9,-42.88 -54,-76.84 -63.2,-124.07 -2,-10.65 10,-18.4 18.4,-10.65 38.5,35.98 65.7,81.47 94,125.6 12.1,-0.64 19.8,9.82 18,21.91 -0.2,1.88 -0.5,3.76 -0.7,5.6 -0.8,5.3 -7,11.5 -12.3,12.25 -1.9,0.26 -3.8,0.53 -5.6,0.8 -5,0.66 -9.8,0.06 -13.9,-2.26 -35.4,7.19 -71.9,12.58 -108.9,15.11 1.7,56.16 5.1,670.63 4.5,724.17 -1.6,121.22 -5.2,34.39 -11.7,155.45 -0.3,6.31 -4.76,9.06 -9.3,9.2 -6.79,10.1 -26.12,8.45 -28.8,-4.95 -6.37,-31.88 7.15,-60.3 16.45,-89.65 -0.2,-32.37 -0.1,-64.75 0.26,-97.17 0.81,-72.7 1.79,-494.97 2.26,-567.69 0.26,-42.67 0.11,-85.3 -0.16,-128.01 -57.44,1.77 -115.11,-3.53 -169.14,-19.8" style="fill:#211d1d;fill-opacity:1;fill-rule:nonzero;stroke:none" id="path128" inkscape:connector-curvature="0"></path><path d="m 1991.18,4823.19 c 1.69,1.6 3.4,3.26 5.08,4.83 0,-1.68 -0.04,-3.36 -0.04,-5.04 -1.7,0.13 -3.41,0.13 -5.04,0.21 z m -96.35,19.56 h -0.06 c 12.91,18.5 25.6,37.19 39.11,55.11 -11.72,-18.64 -23.9,-37.06 -32.51,-57.27 -1.51,1.77 -3.92,2.8 -6.54,2.16 z m 74,2.08 c -3.45,-6.05 -6.7,-12.2 -9.67,-18.46 -2.48,0.29 -4.98,0.49 -7.45,0.78 5.96,5.5 11.67,11.37 17.12,17.68 z m 91.37,67.06 c -13.58,-7.99 -25.85,-17.36 -37.57,-27.47 0.24,5.52 0.58,10.76 0.87,15.83 2.2,5.56 4.21,11.2 5.86,16.99 1.6,5.66 -1.28,10.19 -5.45,12.29 -0.29,4.01 -0.7,8.08 -1.39,12.09 5.49,-4.66 11.51,-9.18 17.83,-13.82 6.9,-5.01 13.44,-10.37 19.85,-15.91 z m 46.37,-44.55 c -13.17,-13 -26.59,-29.91 -41.55,-40.42 10.99,18.59 21.48,37.11 24.22,57.74 5.79,-5.73 11.5,-11.5 17.33,-17.32 z m 9.38,-25.48 c 0.11,-4.95 0.37,-9.86 0.31,-14.77 -5.73,-0.86 -11.5,-1.66 -17.29,-2.31 5.56,5.78 11.23,11.54 16.98,17.08 z m -51.18,44.66 c -3.72,-22.57 -20.25,-45.13 -31.81,-64.97 -3.65,0 -7.28,0.11 -10.94,0.2 0.05,10.25 0.1,20.5 0.15,30.79 13.33,12.39 27.1,24.11 42.6,33.98 z M 2191,4805.94 c 15.78,4.78 17.48,24.8 4.35,33.61 -36.97,24.76 -67.12,55.68 -99.56,85.72 -25.67,23.74 -76.86,35.51 -91.45,68.5 -2.21,4.98 -10.95,2.56 -10.38,-2.85 0.27,-3.12 0.88,-5.97 1.53,-8.79 -4.62,-2.23 -8.17,-7.49 -7.19,-13.6 3.09,-19.11 4.83,-38.69 6.11,-58.47 -22.46,-26.87 -42.27,-60.64 -71.18,-78.64 -0.67,0.16 -1.33,0.22 -2.06,0.35 17.9,42.88 53.99,76.85 63.18,124.08 2,10.64 -9.98,18.4 -18.35,10.64 -38.57,-35.97 -65.69,-81.47 -94.04,-125.59 -12.1,0.65 -19.76,-9.83 -18.01,-21.91 0.26,-1.88 0.53,-3.76 0.77,-5.61 0.78,-5.29 6.95,-11.5 12.25,-12.23 1.9,-0.28 3.77,-0.55 5.65,-0.81 4.92,-0.66 9.77,-0.07 13.87,2.26 35.36,-7.19 71.86,-12.58 108.9,-15.1 -1.77,-56.17 -5.16,-670.64 -4.5,-724.18 1.58,-121.23 5.17,-34.39 11.7,-155.45 0.32,-6.31 4.74,-9.06 9.28,-9.2 6.8,-10.1 26.12,-8.45 28.81,4.95 6.36,31.87 -7.15,60.31 -16.46,89.65 0.21,32.36 0.11,64.75 -0.26,97.17 -0.81,72.7 -1.79,494.98 -2.26,567.68 -0.25,42.68 -0.1,85.31 0.16,128.02 57.44,-1.78 115.12,3.53 169.14,19.8" style="fill:#211d1d;fill-opacity:1;fill-rule:nonzero;stroke:none" id="path130" inkscape:connector-curvature="0"></path><path d="m 3593.15,6400.58 c -19.84,-1.32 -30.3,11.73 -48.01,11.66 -35.14,-0.16 -70.33,-0.03 -105.54,-0.72 -58.41,-1.24 -116.66,-11.83 -174.98,-15.77 -133.93,-9.06 -1861.79,11.24 -1995.49,14.82 -116.69,3.09 -234.07,14.33 -350.685,11.24 -121.828,-3.22 -242.621,-16.2 -364.148,-13.69 0,-0.11 0.039,-0.21 0.039,-0.26 -7.66,0.24 -11.852,-7.76 -11.527,-15.83 0,-0.06 0,-0.06 0,-0.06 -21.575,-60.52 -9.02,-347.24 -8.336,-412.04 1.304,-120.41 -8.618,90.16 -10.379,-30.14 -3.528,-238.94 15.441,-593.21 15.379,-832.33 -0.055,-23.44 29.84,-23.44 29.644,0 -1.629,216.53 -16.512,548.03 -19.312,764.49 -1.453,111.47 7.629,-107.88 8.812,3.39 0.996,93.12 -18.351,400.37 -2.742,492.58 111.996,-8.49 223.973,2.72 336.367,7.25 125.538,5.12 251.308,-8.82 376.888,-11.04 124.77,-2.29 1843.2,-20.15 1968.19,-16.97 59.65,1.53 118.83,10.55 178.3,15.3 52.69,4.19 104.72,-9.78 156.11,-10.92 -3.52,-29.77 0.19,-258.51 1.58,-288.52 3.14,-66.7 -13.76,-141.39 -15.11,-209.2 -2.95,-153.67 4.26,-210.23 7.28,-363.9 2.88,-145.39 6.95,-176.38 4.1,-321.76 -0.12,-6.57 -0.34,-14.42 0,-22.33 -52.62,-7.81 -101.5,2.3 -154.26,-11.64 -58.21,-15.49 -115.11,2.76 -172.81,10.19 -117.03,15.1 -1833.3,-6.53 -1950.81,-7.65 -133.88,-1.29 -267.71,-6.35 -401.571,-7.9 -103.52,-1.12 -214.449,14.14 -313.734,-18.84 -9.04,-3 -5.024,-18.34 3.781,-16.79 117.351,21.42 243.32,4.86 362.633,4.52 134.361,-0.43 1863.511,4.05 1997.881,3.71 118.42,-0.3 238.11,19.7 355.4,-7.68 42.57,-10.07 85.72,-8.19 128.26,0.42 51.16,10.22 105.96,-6.35 153.16,18.6 1.88,-3.01 4.03,-5.69 6.87,-7.73 4.59,-3.27 16.09,4.9 18.27,2.37 0.08,-0.12 0.27,0.05 0.16,0.21 -0.76,1.88 -1.5,3.86 -2.22,5.74 -0.04,5.4 -3.33,8.73 -7.44,9.24 4.91,-0.68 2.37,683.08 1.85,731.16 -1.01,109.97 -4.3,-109.87 -3.95,0.06 0.04,52.57 5.32,103.81 10.92,155.81 4.86,46.23 -5.09,293.58 2.11,338.63 0.57,3.53 0.33,6.79 -0.31,9.67 8.43,11.13 4.98,33.77 -10.62,32.65" style="fill:#211d1d;fill-opacity:1;fill-rule:nonzero;stroke:none" id="path132" inkscape:connector-curvature="0"></path><path d="m 7527.01,7955.52 c -19.84,-1.32 -30.3,11.73 -48.01,11.65 -35.14,-0.15 -70.33,-0.02 -105.54,-0.71 -58.42,-1.25 -116.66,-11.83 -174.98,-15.78 -133.93,-9.05 -1861.79,11.25 -1995.49,14.83 -116.69,3.09 -234.07,14.32 -350.69,11.24 -121.82,-3.22 -242.61,-16.21 -364.15,-13.69 0,-0.11 0.04,-0.22 0.04,-0.26 -7.66,0.24 -11.85,-7.77 -11.52,-15.83 0,-0.06 0,-0.06 0,-0.06 -21.57,-60.52 -9.02,-347.24 -8.34,-412.04 1.3,-120.42 -8.61,90.16 -10.38,-30.14 -3.53,-238.94 15.45,-593.22 15.38,-832.33 -0.05,-23.44 29.84,-23.44 29.65,0 -1.63,216.53 -16.51,548.03 -19.31,764.49 -1.46,111.47 7.62,-107.89 8.81,3.39 1,93.11 -18.35,400.36 -2.74,492.58 111.99,-8.49 223.97,2.72 336.36,7.25 125.55,5.11 251.31,-8.82 376.89,-11.04 124.77,-2.29 1843.2,-20.15 1968.18,-16.97 59.65,1.52 118.84,10.54 178.31,15.3 52.7,4.18 104.72,-9.78 156.12,-10.93 -3.53,-29.77 0.17,-258.51 1.57,-288.51 3.14,-66.7 -13.76,-141.4 -15.1,-209.2 -2.95,-153.68 4.25,-210.23 7.28,-363.9 2.88,-145.39 6.94,-176.38 4.09,-321.76 -0.11,-6.58 -0.33,-14.43 0,-22.34 -52.61,-7.8 -101.5,2.31 -154.26,-11.62 -58.2,-15.51 -115.11,2.75 -172.81,10.18 -117.02,15.09 -1833.3,-6.53 -1950.81,-7.65 -133.88,-1.29 -267.71,-6.36 -401.57,-7.91 -103.52,-1.12 -214.45,14.15 -313.73,-18.83 -9.05,-3.01 -5.03,-18.34 3.78,-16.79 117.35,21.42 243.32,4.86 362.63,4.52 134.37,-0.43 1863.52,4.05 1997.88,3.71 118.42,-0.31 238.11,19.7 355.41,-7.67 42.56,-10.08 85.7,-8.2 128.25,0.41 51.17,10.23 105.96,-6.35 153.16,18.6 1.88,-3.01 4.03,-5.69 6.86,-7.73 4.6,-3.27 16.11,4.9 18.28,2.37 0.08,-0.12 0.28,0.05 0.16,0.21 -0.76,1.88 -1.5,3.86 -2.23,5.75 -0.03,5.39 -3.33,8.73 -7.43,9.22 4.91,-0.67 2.37,683.09 1.84,731.17 -0.99,109.97 -4.3,-109.87 -3.94,0.06 0.03,52.57 5.32,103.81 10.92,155.81 4.86,46.23 -5.09,293.58 2.11,338.63 0.57,3.53 0.33,6.79 -0.31,9.67 8.43,11.13 4.99,33.77 -10.62,32.65" style="fill:#211d1d;fill-opacity:1;fill-rule:nonzero;stroke:none" id="path134" inkscape:connector-curvature="0"></path><path d="m 7527.01,2413.56 c -19.84,-1.32 -30.3,11.72 -48.01,11.65 -35.14,-0.16 -70.33,-0.03 -105.54,-0.71 -58.42,-1.24 -116.66,-11.84 -174.98,-15.77 -133.93,-9.06 -1861.79,11.24 -1995.49,14.82 -116.69,3.1 -234.07,14.33 -350.69,11.24 -121.82,-3.22 -242.61,-16.2 -364.15,-13.68 0,-0.12 0.04,-0.23 0.04,-0.27 -7.66,0.24 -11.85,-7.76 -11.52,-15.83 0,-0.04 0,-0.04 0,-0.04 -21.57,-60.54 -9.02,-347.27 -8.34,-412.05 1.3,-120.42 -8.61,90.14 -10.38,-30.15 -3.53,-238.94 15.45,-593.21 15.38,-832.34 -0.05,-23.42 29.84,-23.42 29.65,0 -1.63,216.54 -16.51,548.05 -19.31,764.51 -1.46,111.46 7.62,-107.89 8.81,3.38 1,93.11 -18.35,400.38 -2.74,492.57 111.99,-8.49 223.97,2.73 336.36,7.26 125.55,5.13 251.31,-8.82 376.89,-11.05 124.77,-2.28 1843.2,-20.14 1968.18,-16.96 59.65,1.53 118.84,10.55 178.31,15.29 52.7,4.19 104.72,-9.77 156.12,-10.91 -3.53,-29.78 0.17,-258.51 1.57,-288.52 3.14,-66.7 -13.76,-141.39 -15.1,-209.2 -2.95,-153.68 4.25,-210.23 7.28,-363.9 2.88,-145.39 6.94,-176.39 4.09,-321.76 -0.11,-6.58 -0.33,-14.42 0,-22.34 -52.61,-7.8 -101.5,2.32 -154.26,-11.63 -58.2,-15.5 -115.11,2.75 -172.81,10.19 -117.02,15.1 -1833.3,-6.53 -1950.81,-7.65 -133.88,-1.29 -267.71,-6.36 -401.57,-7.91 -103.52,-1.11 -214.45,14.15 -313.73,-18.83 -9.05,-3 -5.03,-18.35 3.78,-16.78 117.35,21.41 243.32,4.85 362.63,4.51 134.37,-0.43 1863.52,4.05 1997.88,3.72 118.42,-0.31 238.11,19.71 355.41,-7.68 42.56,-10.08 85.7,-8.2 128.25,0.41 51.17,10.23 105.96,-6.35 153.16,18.6 1.88,-3 4.03,-5.7 6.86,-7.73 4.6,-3.27 16.11,4.9 18.28,2.38 0.08,-0.14 0.28,0.03 0.16,0.19 -0.76,1.91 -1.5,3.88 -2.23,5.75 -0.03,5.4 -3.33,8.74 -7.43,9.23 4.91,-0.67 2.37,683.1 1.84,731.17 -0.99,109.97 -4.3,-109.87 -3.94,0.06 0.03,52.57 5.32,103.81 10.92,155.8 4.86,46.23 -5.09,293.59 2.11,338.65 0.57,3.52 0.33,6.76 -0.31,9.65 8.43,11.14 4.99,33.78 -10.62,32.66" style="fill:#211d1d;fill-opacity:1;fill-rule:nonzero;stroke:none" id="path136" inkscape:connector-curvature="0"></path><path d="m 11527.3,3893.63 c -19.8,-1.31 -30.3,11.74 -48,11.67 -35.1,-0.16 -70.3,-0.02 -105.5,-0.72 -58.4,-1.25 -116.7,-11.83 -175,-15.79 -133.9,-9.04 -1861.8,11.27 -1995.5,14.83 -116.69,3.09 -234.06,14.33 -350.68,11.25 -121.83,-3.22 -242.62,-16.2 -364.15,-13.68 0,-0.12 0.04,-0.23 0.04,-0.28 -7.67,0.27 -11.85,-7.76 -11.53,-15.82 0,-0.06 0,-0.06 0,-0.06 -21.57,-60.52 -9.02,-347.25 -8.33,-412.04 1.3,-120.41 -8.62,90.17 -10.38,-30.14 -3.54,-238.94 15.44,-593.22 15.37,-832.32 -0.06,-23.45 29.85,-23.45 29.64,0 -1.62,216.54 -16.5,548.02 -19.3,764.48 -1.46,111.47 7.62,-107.88 8.81,3.36 0.99,93.15 -18.36,400.39 -2.74,492.6 111.99,-8.48 223.97,2.73 336.37,7.26 125.53,5.11 251.29,-8.81 376.88,-11.04 124.78,-2.29 1843.2,-20.15 1968.2,-16.97 59.6,1.52 118.8,10.55 178.3,15.3 52.7,4.19 104.7,-9.78 156.1,-10.92 -3.5,-29.77 0.2,-258.52 1.6,-288.5 3.1,-66.71 -13.8,-141.42 -15.1,-209.22 -3,-153.67 4.2,-210.22 7.3,-363.9 2.8,-145.4 6.9,-176.37 4.1,-321.75 -0.2,-6.58 -0.4,-14.44 0,-22.35 -52.7,-7.8 -101.6,2.31 -154.3,-11.62 -58.2,-15.49 -115.1,2.74 -172.8,10.18 -117,15.09 -1833.32,-6.53 -1950.83,-7.66 -133.88,-1.28 -267.71,-6.34 -401.57,-7.89 -103.52,-1.13 -214.45,14.13 -313.72,-18.86 -9.07,-2.98 -5.03,-18.32 3.77,-16.77 117.35,21.44 243.33,4.86 362.63,4.53 134.37,-0.44 1863.52,4.04 1997.92,3.71 118.4,-0.32 238.1,19.69 355.4,-7.69 42.5,-10.06 85.7,-8.17 128.2,0.43 51.2,10.23 106,-6.36 153.2,18.59 1.9,-3.02 4,-5.69 6.9,-7.73 4.5,-3.27 16,4.9 18.2,2.36 0.1,-0.1 0.3,0.07 0.2,0.23 -0.8,1.87 -1.5,3.85 -2.2,5.74 -0.1,5.39 -3.4,8.74 -7.5,9.23 4.9,-0.67 2.4,683.08 1.9,731.18 -1,109.94 -4.3,-109.89 -4,0.04 0.1,52.58 5.3,103.81 10.9,155.81 4.9,46.23 -5.1,293.59 2.2,338.63 0.5,3.53 0.3,6.8 -0.4,9.67 8.5,11.14 5,33.78 -10.6,32.64" style="fill:#211d1d;fill-opacity:1;fill-rule:nonzero;stroke:none" id="path138" inkscape:connector-curvature="0"></path><path d="m 3593.15,3893.63 c -19.84,-1.31 -30.3,11.74 -48.01,11.67 -35.14,-0.16 -70.33,-0.02 -105.54,-0.72 -58.41,-1.25 -116.66,-11.83 -174.98,-15.79 -133.93,-9.04 -1861.79,11.27 -1995.49,14.83 -116.69,3.09 -234.07,14.33 -350.685,11.25 -121.828,-3.22 -242.621,-16.2 -364.148,-13.68 0,-0.12 0.039,-0.23 0.039,-0.28 -7.66,0.27 -11.852,-7.76 -11.527,-15.82 0,-0.06 0,-0.06 0,-0.06 -21.575,-60.52 -9.02,-347.25 -8.336,-412.04 1.304,-120.41 -8.618,90.17 -10.379,-30.14 -3.528,-238.94 15.441,-593.22 15.379,-832.32 -0.055,-23.45 29.84,-23.45 29.644,0 -1.629,216.54 -16.512,548.02 -19.312,764.48 -1.453,111.47 7.629,-107.88 8.812,3.36 0.996,93.15 -18.351,400.39 -2.742,492.6 111.996,-8.48 223.973,2.73 336.367,7.26 125.538,5.11 251.308,-8.81 376.888,-11.04 124.77,-2.29 1843.2,-20.15 1968.19,-16.97 59.65,1.52 118.83,10.55 178.3,15.3 52.69,4.19 104.72,-9.78 156.11,-10.92 -3.52,-29.77 0.19,-258.52 1.58,-288.5 3.14,-66.71 -13.76,-141.42 -15.11,-209.22 -2.95,-153.67 4.26,-210.22 7.28,-363.9 2.88,-145.4 6.95,-176.37 4.1,-321.75 -0.12,-6.58 -0.34,-14.44 0,-22.35 -52.62,-7.8 -101.5,2.31 -154.26,-11.62 -58.21,-15.49 -115.11,2.74 -172.81,10.18 -117.03,15.09 -1833.3,-6.53 -1950.81,-7.66 -133.88,-1.28 -267.71,-6.34 -401.571,-7.89 -103.52,-1.13 -214.449,14.13 -313.734,-18.86 -9.04,-2.98 -5.024,-18.32 3.781,-16.77 117.351,21.44 243.32,4.86 362.633,4.53 134.361,-0.44 1863.511,4.04 1997.881,3.71 118.42,-0.32 238.11,19.69 355.4,-7.69 42.57,-10.06 85.72,-8.17 128.26,0.43 51.16,10.23 105.96,-6.36 153.16,18.59 1.88,-3.02 4.03,-5.69 6.87,-7.73 4.59,-3.27 16.09,4.9 18.27,2.36 0.08,-0.1 0.27,0.07 0.16,0.23 -0.76,1.87 -1.5,3.85 -2.22,5.74 -0.04,5.39 -3.33,8.74 -7.44,9.23 4.91,-0.67 2.37,683.08 1.85,731.18 -1.01,109.94 -4.3,-109.89 -3.95,0.04 0.04,52.58 5.32,103.81 10.92,155.81 4.86,46.23 -5.09,293.59 2.11,338.63 0.57,3.53 0.33,6.8 -0.31,9.67 8.43,11.14 4.98,33.78 -10.62,32.64" style="fill:#211d1d;fill-opacity:1;fill-rule:nonzero;stroke:none" id="path140" inkscape:connector-curvature="0"></path><path d="m 10031.7,6771.59 c 6.2,-11.55 13.3,-22.82 19.3,-34.56 -13.9,10.06 -25.6,22.78 -39.2,32.69 0,1.23 0.1,2.47 0.1,3.7 6.5,-0.58 13.2,-1.13 19.8,-1.83 z m -81.89,5.24 c 4.67,0 9.18,-0.36 13.81,-0.53 -0.55,-1.3 -1.07,-2.65 -1.07,-4.28 -0.05,-6.69 1.07,-12.39 2.68,-17.79 -8.95,8.16 -18.16,15.96 -27.87,22.89 4.08,-0.13 8.39,-0.29 12.45,-0.29 z m -28.64,-19.91 c 16.09,-10.5 30.59,-24.33 45.29,-37.85 -0.72,-6.22 -1.66,-12.54 -2.53,-18.69 -14.98,18.29 -30.15,36.6 -42.76,56.54 z m -12.18,-27.29 c 10.76,-14.4 22.32,-28.21 33.68,-42.3 -8.18,7.74 -16.75,15.05 -26.13,21.37 -2.5,6.97 -5.08,13.98 -7.55,20.93 z m 96.41,-124.36 c -5.48,-10.66 -11.31,-21.19 -17.71,-31.23 -6.76,12.26 -22.89,42.03 -38.4,70.59 13.73,-14.2 27.64,-28.16 44.86,-38.47 3.56,-2.21 7.65,-2.21 11.25,-0.89 z m -46.48,-41.96 c 3.88,-4.36 8,-8.14 12.15,-11.38 -2.55,-3.01 -5.12,-5.93 -8,-8.64 -1.6,6.45 -2.89,13.22 -4.15,20.02 z m 71.58,91.48 c -5.8,-10.66 -11.3,-21.88 -17,-33.33 -4.6,12.96 -11,24.66 -18.05,35.83 3.79,10.63 6.55,21.26 8.75,32.11 3.2,-2 6.2,-4.06 9.5,-5.71 12.2,-6.27 22.7,5.89 17.6,17.69 -4.3,9.91 -12.8,19.12 -21.1,28.43 0.4,4.25 0.6,8.4 0.7,12.62 17.9,-13.77 34.5,-31.68 56,-38.26 -13.3,-16.6 -27.1,-32.78 -36.4,-49.38 z m 41.4,111.86 c 5.9,-7.95 11.6,-15.82 17.3,-22.22 1.1,-1.14 2.4,-1.81 3.6,-2.35 -3.5,-6.79 -7.7,-13.31 -12.4,-19.78 -5.2,16.18 -14.1,31.16 -22.6,46.06 4.7,-0.53 9.4,-1.11 14.1,-1.71 z m 69.1,6.88 c 1.5,9.04 -2.2,21.05 -13,22.72 -20.2,3.29 -40,5.98 -59.6,8.49 -10.9,10.98 -23.1,19.88 -38.8,23.07 -8.9,1.81 -15,-5.16 -13.6,-13.75 0,-1.27 0.5,-2.47 0.8,-3.69 -1.8,0.13 -3.6,0.3 -5.4,0.48 -0.3,16.48 -0.8,32.98 -0.8,49.22 0.1,71.11 0.7,9.21 -0.5,80.08 -2.4,148.36 -1.4,31.39 1,179.47 1.2,83.39 -13.97,153.21 -100.55,183.13 -23.48,8.14 -65.94,-12.51 -87.57,-10.97 -30.69,2.15 -61.51,4.9 -92.3,5.39 -71.69,0.97 -142.92,7.32 -214.45,10.9 -152.99,7.8 -1221.72,-15.4 -1374.76,-10.33 -145.58,4.88 -230.24,15.44 -375.58,7.47 -80.68,-4.4 1418.88,-7.79 1338.29,-2 -55.76,4 -1038.55,18.12 -1093.85,8.51 -75.86,-13.16 -144.45,-26.57 -222,-22.71 -37.88,1.78 -75.79,3.23 -113.58,1.41 -0.67,0 -1.27,0 -2,0 -37.82,3.51 -76.07,8.31 -114.2,7.22 -22.25,-0.59 -22.09,-33.38 0,-34.42 10.86,-0.49 19.12,-1.56 27.56,-1.66 28.96,-1.71 57.76,-3.58 86.64,-6.77 29.65,-3.16 59.44,-9.96 87.27,1.62 65.98,-5.65 132.27,-5.26 196.32,7.26 129.78,25.34 1188.03,-6.93 1320.25,-3.2 251.56,6.96 -222.83,-20.02 28.47,-1.72 142.71,10.31 283.01,-2.92 425.62,-7.82 54.27,-1.98 101.75,-5.09 154.17,3.12 94.87,14.95 84.33,-154.12 83.04,-201.62 -3.53,-126.31 -4.87,14 -3.22,-112.28 1.07,-82.2 8.94,-39.13 7.69,-126.31 -7.44,0.42 -15.01,1 -22.55,1.41 -31.4,1.34 -63.73,9.32 -94.66,4.16 -16.61,-2.7 -13.51,-26.1 0,-30.58 5.06,-1.57 10.52,-2.79 15.92,-4.17 -0.88,-45.52 16.28,-84.43 27.86,-130.06 8.34,-32.54 24.01,-66.69 26.99,-100.21 1.73,-18.74 4.58,-32.5 14.79,-48.58 4.89,-7.64 15.89,-11.8 23.96,-6.27 49.33,33.69 66.33,88.46 96.63,137.29 27.4,44.16 71.3,83.42 79.7,136.7" style="fill:#231f20;fill-opacity:1;fill-rule:nonzero;stroke:none" id="path142" inkscape:connector-curvature="0"></path><path d="m 2019.45,2282.57 c -6.29,11.56 -13.39,22.83 -19.3,34.56 13.84,-10.05 25.57,-22.77 39.11,-32.69 0,-1.22 -0.05,-2.46 -0.05,-3.69 -6.52,0.57 -13.18,1.12 -19.76,1.82 z m 81.84,-5.22 c -4.67,0 -9.18,0.34 -13.81,0.52 0.56,1.3 1.08,2.64 1.08,4.27 0.05,6.69 -1.08,12.4 -2.69,17.81 8.95,-8.18 18.15,-15.97 27.88,-22.9 -4.08,0.12 -8.4,0.3 -12.46,0.3 z m 28.64,19.89 c -16.09,10.51 -30.59,24.33 -45.29,37.86 0.73,6.21 1.66,12.53 2.53,18.68 14.99,-18.28 30.16,-36.59 42.76,-56.54 z m 12.17,27.3 c -10.74,14.4 -22.31,28.21 -33.66,42.29 8.18,-7.74 16.74,-15.04 26.13,-21.36 2.5,-6.98 5.07,-13.98 7.53,-20.93 z m -96.42,124.35 c 5.5,10.67 11.32,21.2 17.74,31.23 6.75,-12.25 22.88,-42.03 38.4,-70.59 -13.73,14.21 -27.66,28.16 -44.87,38.48 -3.55,2.21 -7.6,2.21 -11.27,0.88 z m 46.51,41.96 c -3.89,4.36 -8.01,8.15 -12.16,11.38 2.56,3.02 5.13,5.94 8.01,8.65 1.59,-6.45 2.88,-13.23 4.15,-20.03 z m -71.61,-91.47 c 5.84,10.66 11.34,21.88 17,33.32 4.63,-12.96 11.04,-24.65 18.08,-35.82 -3.79,-10.63 -6.57,-21.27 -8.79,-32.11 -3.19,2 -6.17,4.05 -9.45,5.7 -12.24,6.28 -22.71,-5.89 -17.63,-17.67 4.32,-9.93 12.8,-19.13 21.12,-28.45 -0.41,-4.25 -0.62,-8.4 -0.76,-12.62 -17.89,13.78 -34.43,31.68 -55.93,38.27 13.28,16.61 27.09,32.78 36.36,49.38 z m -41.38,-111.87 c -5.92,7.96 -11.62,15.82 -17.31,22.22 -1.04,1.15 -2.38,1.81 -3.61,2.36 3.55,6.79 7.76,13.3 12.39,19.77 5.28,-16.17 14.14,-31.15 22.66,-46.06 -4.73,0.53 -9.42,1.12 -14.13,1.71 z m -69.14,-6.87 c -1.42,-9.05 2.22,-21.06 13.01,-22.72 20.26,-3.29 40.05,-5.99 59.66,-8.49 10.9,-10.99 23.08,-19.88 38.82,-23.08 8.88,-1.8 14.95,5.16 13.6,13.75 -0.09,1.28 -0.51,2.47 -0.82,3.69 1.81,-0.12 3.56,-0.29 5.35,-0.48 0.31,-16.48 0.82,-32.97 0.82,-49.21 -0.05,-71.12 -0.71,-9.22 0.47,-80.08 2.45,-148.35 1.42,-31.39 -0.93,-179.47 -1.23,-83.4 13.93,-153.21 100.53,-183.14 23.47,-8.13 65.92,12.52 87.56,10.99 30.69,-2.16 61.5,-4.91 92.29,-5.4 71.69,-0.98 142.92,-7.33 214.45,-10.89 153,-7.81 1221.72,15.38 1374.76,10.31 145.58,-4.87 230.25,-15.44 375.58,-7.46 80.69,4.39 -1418.87,7.78 -1338.29,1.99 55.76,-3.99 1038.56,-18.11 1093.85,-8.5 75.86,13.16 144.46,26.58 222,22.7 37.88,-1.78 75.79,-3.22 113.59,-1.4 0.66,0 1.27,0 1.99,0 37.83,-3.51 76.07,-8.32 114.19,-7.22 22.27,0.59 22.1,33.38 0,34.41 -10.85,0.49 -19.1,1.56 -27.54,1.66 -28.96,1.71 -57.77,3.59 -86.65,6.77 -29.65,3.16 -59.43,9.97 -87.26,-1.61 -65.98,5.64 -132.28,5.25 -196.31,-7.26 -129.8,-25.35 -1188.04,6.92 -1320.27,3.2 -251.56,-6.96 222.83,20.01 -28.46,1.72 -142.72,-10.32 -283.01,2.92 -425.63,7.82 -54.26,1.98 -101.75,5.09 -154.17,-3.12 -94.86,-14.95 -84.32,154.12 -83.04,201.62 3.54,126.31 4.88,-14 3.23,112.28 -1.07,82.2 -8.94,39.13 -7.69,126.31 7.43,-0.41 15,-1.01 22.54,-1.42 31.41,-1.34 63.72,-9.32 94.66,-4.15 16.61,2.7 13.52,26.1 0,30.58 -5.07,1.57 -10.53,2.79 -15.92,4.16 0.88,45.53 -16.29,84.43 -27.85,130.06 -8.33,32.55 -24.01,66.7 -27,100.22 -1.72,18.73 -4.56,32.5 -14.78,48.58 -4.9,7.63 -15.9,11.8 -23.96,6.27 -49.33,-33.69 -66.29,-88.45 -96.61,-137.29 -27.38,-44.16 -71.37,-83.43 -79.77,-136.7" style="fill:#231f20;fill-opacity:1;fill-rule:nonzero;stroke:none" id="path144" inkscape:connector-curvature="0"></path><path d="m 4009.87,7343.08 c 11.55,6.28 22.81,13.38 34.56,19.3 -10.05,-13.85 -22.78,-25.57 -32.69,-39.12 -1.22,0 -2.47,0.06 -3.7,0.06 0.58,6.51 1.13,13.17 1.83,19.76 z m -5.23,-81.84 c 0,4.67 0.35,9.18 0.52,13.81 1.31,-0.57 2.64,-1.08 4.28,-1.08 6.7,-0.05 12.4,1.08 17.79,2.69 -8.17,-8.96 -15.96,-18.16 -22.89,-27.89 0.13,4.08 0.3,8.4 0.3,12.47 z m 19.89,-28.65 c 10.52,16.1 24.34,30.58 37.86,45.29 6.22,-0.73 12.54,-1.66 18.69,-2.52 -18.28,-14.99 -36.6,-30.17 -56.55,-42.77 z m 27.3,-12.17 c 14.42,10.74 28.2,22.31 42.29,33.67 -7.73,-8.18 -15.04,-16.76 -21.36,-26.13 -6.97,-2.52 -13.98,-5.07 -20.93,-7.54 z m 124.36,96.43 c 10.65,-5.5 21.19,-11.33 31.23,-17.74 -12.25,-6.76 -42.03,-22.89 -70.6,-38.41 14.22,13.73 28.17,27.66 38.48,44.86 2.21,3.56 2.22,7.62 0.89,11.29 z m 41.95,-46.52 c 4.37,3.9 8.14,8 11.39,12.17 3.01,-2.57 5.93,-5.14 8.65,-8.02 -6.45,-1.6 -13.23,-2.88 -20.04,-4.15 z m -91.47,71.62 c 10.66,-5.84 21.88,-11.34 33.33,-17.01 -12.96,-4.62 -24.66,-11.04 -35.83,-18.07 -10.63,3.79 -21.25,6.56 -32.12,8.78 2.01,3.2 4.07,6.17 5.72,9.46 6.27,12.22 -5.89,22.71 -17.69,17.63 -9.91,-4.32 -19.11,-12.81 -28.42,-21.13 -4.26,0.42 -8.41,0.63 -12.63,0.77 13.77,17.88 31.68,34.43 38.27,55.92 16.59,-13.27 32.76,-27.08 49.37,-36.35 z m -111.86,41.38 c 7.96,5.91 15.82,11.61 22.22,17.3 1.14,1.05 1.81,2.38 2.35,3.62 6.79,-3.56 13.3,-7.76 19.78,-12.41 -16.19,-5.28 -31.16,-14.12 -46.06,-22.66 0.53,4.75 1.12,9.43 1.71,14.15 z m -6.88,69.13 c -9.04,1.43 -21.05,-2.22 -22.72,-13.01 -3.29,-20.26 -5.99,-40.05 -8.49,-59.66 -10.98,-10.9 -19.88,-23.08 -23.08,-38.82 -1.8,-8.88 5.17,-14.94 13.76,-13.59 1.27,0.08 2.47,0.5 3.68,0.81 -0.12,-1.81 -0.29,-3.55 -0.47,-5.34 -16.49,-0.32 -32.98,-0.82 -49.21,-0.82 -71.12,0.05 -9.22,0.71 -80.08,-0.47 -148.37,-2.46 -1573.05,-1.43 -1721.13,0.92 -83.39,1.24 -153.21,-13.93 -183.13,-100.52 -8.14,-23.47 12.51,-65.93 10.98,-87.57 -2.16,-30.69 -4.91,-61.51 -5.4,-92.29 -0.97,-71.69 -7.32,-142.92 -10.89,-214.46 -7.81,-152.99 15.39,94.01 10.32,-59.04 -4.88,-145.57 -15.43,-70.75 -7.47,-216.09 2.18,-40.76 10.66,382.28 2,261.79 -3.99,-55.76 -18.12,144.25 -8.51,88.98 13.16,-75.87 26.58,-250.79 22.71,-328.32 -1.78,-37.89 -3.23,-35.93 -1.4,-73.72 0.01,-0.67 0,-1.28 0,-2 -3.52,-37.82 -8.32,-76.07 -7.23,-114.19 0.6,-22.27 33.38,-22.11 34.42,0 0.49,10.85 1.56,19.11 1.66,27.54 1.71,28.97 3.58,57.77 6.77,86.65 3.16,29.65 9.96,19.57 -1.61,47.39 5.64,65.98 5.25,238.6 -7.26,302.64 -25.35,129.79 6.92,5.22 3.19,137.44 -6.95,251.57 20.02,-222.82 1.73,28.47 -10.32,142.72 2.92,-115.69 7.82,26.92 1.98,54.27 5.08,101.76 -3.12,154.17 -14.95,94.86 154.12,84.33 201.62,83.05 126.31,-3.55 1527.64,-4.89 1653.93,-3.25 82.19,1.09 39.12,8.96 126.3,7.71 -0.41,-7.44 -0.99,-15 -1.41,-22.55 -1.34,-31.4 -9.32,-63.72 -4.15,-94.66 2.7,-16.62 26.09,-13.51 30.57,0 1.57,5.08 2.79,10.52 4.17,15.92 45.53,-0.88 84.42,16.29 130.06,27.85 32.55,8.34 66.69,24.02 100.22,26.99 18.73,1.73 32.5,4.58 48.57,14.79 7.64,4.89 11.81,15.9 6.27,23.95 -33.69,49.35 -88.46,66.31 -137.28,96.63 -44.18,27.38 -83.43,71.36 -136.71,79.76" style="fill:#231f20;fill-opacity:1;fill-rule:nonzero;stroke:none" id="path146" inkscape:connector-curvature="0"></path><path d="m 4162.63,3967.53 c -26.17,317.99 37.87,636.61 28.97,955.11 -1.28,46.04 -65.49,7.77 -94.01,-2.64 -55.37,-11.14 -118.83,-76.3 -175.23,-50.97 -66.04,26.96 -58.91,115.48 5.41,149.93 287.56,153.95 425.29,104.05 733.7,129.95 9.6,0.27 19.94,-26.33 27.89,-35.71 20.79,-57.02 -23.97,-104.35 -79.07,-125.1 -131.64,-30.55 -84.21,-10.04 -204.82,-22.99 -56.38,-318.41 -58.99,-637.21 -57.8,-954 1.33,-47.97 -63.15,-76.66 -108.67,-97.14 -43.63,-18.5 -73.7,26.74 -76.37,53.56" style="fill:#231f20;fill-opacity:1;fill-rule:nonzero;stroke:none" id="path148" inkscape:connector-curvature="0"></path><path d="m 4964.92,4665.84 c 112.02,-23.76 239.56,16.28 320.02,91.5 18.92,10.13 54.57,39.93 34.63,66.28 -56.83,109.76 -178.94,150.52 -280.95,159.19 -73.12,5.62 -52.26,-122.43 -67.97,-178.56 -14.11,-44.57 -52.1,-128.19 -5.73,-138.41 z m -175.18,290.8 c -10.89,45.78 -39.56,110.26 5.73,138.41 226.37,144.58 525.23,31.96 669.53,-184.81 86.1,-126.25 -65.94,-251.47 -175.18,-327.48 41.88,-192.76 105.12,-394.54 200.18,-566.63 30.33,-54.82 -89.47,-96.57 -136.58,-59.48 -170.8,133.47 -127.93,386.21 -272.34,537.71 -27.67,28.03 -121.62,23.48 -139.79,-13.52 -41.92,-149.04 48.82,-303.94 58.71,-451.49 2.93,-36.42 -71.09,-67.3 -127,-59.25 -27.13,8.84 -47.07,35.17 -57.19,54.09 -67.98,165.16 -55.87,349.81 -60.75,524.4 -3.86,138.16 84.11,288.47 34.68,408.05" style="fill:#231f20;fill-opacity:1;fill-rule:nonzero;stroke:none" id="path150" inkscape:connector-curvature="0"></path><path d="m 5579.74,4926.87 c 19.16,69.69 106.03,122.03 187.68,85.9 19.77,-20.56 39.77,-48.8 31.3,-89.36 -93.38,-231.11 -91.14,-586.28 129.32,-710.67 163.9,-93.36 255.44,135.76 270.43,286 35.57,169.94 -19,335.46 -23.7,504.31 -11.58,70.73 85.73,92.66 165.78,114.09 0.8,-28.77 38.9,-18.11 39.46,-37.31 48.33,-286.67 67.92,-576.06 -95.9,-828.34 -112.32,-172.12 -388.3,-327.69 -550.36,-163.21 -219.24,218.5 -232.31,548.4 -154.01,838.59" style="fill:#231f20;fill-opacity:1;fill-rule:nonzero;stroke:none" id="path152" inkscape:connector-curvature="0"></path><path d="m 6472.61,4926.88 c 161.06,213.81 443.05,223.63 683.07,291.76 51.43,14.9 108.05,-18.1 126.49,-59.82 24.49,-51.16 -37.65,-95.13 -79.59,-105.92 -146.24,-57.83 -302.24,-41.09 -436.42,-117.8 -20.79,-12.11 -41.37,-31.88 -31.18,-52.71 164.08,-237.36 596.22,-309.76 520.55,-624.85 -65.3,-274.51 -463.08,-331.7 -705.96,-229.05 -108.79,44.96 -47.47,186.84 45.35,231.69 53.46,11.11 55.52,-61.8 96.12,-72.2 42.47,-8.4 84.4,2.36 127.21,-17.56 85.55,-37.92 157,15.91 229.06,48.65 41.3,33.79 39.86,85.59 17.55,127.22 -152.98,183.87 -373.75,250.71 -526.78,436.49 -45.74,56.33 -106.23,91.13 -65.47,144.1" style="fill:#231f20;fill-opacity:1;fill-rule:nonzero;stroke:none" id="path154" inkscape:connector-curvature="0"></path><path d="m 7621.92,4064.24 c -26.17,318.01 37.88,636.63 28.98,955.12 -1.28,46.05 -65.5,7.77 -94.02,-2.63 -55.37,-11.14 -118.83,-76.3 -175.22,-50.96 -66.04,26.95 -58.92,115.47 5.42,149.91 287.55,153.95 425.26,104.05 733.68,129.95 9.59,0.26 19.94,-26.32 27.89,-35.7 20.79,-57.03 -23.98,-104.35 -79.07,-125.1 -131.64,-30.56 -84.21,-10.04 -204.79,-23 -56.41,-318.41 -59.01,-637.22 -57.84,-953.99 1.35,-47.98 -63.14,-76.67 -108.65,-97.13 -43.63,-18.54 -73.71,26.73 -76.38,53.53" style="fill:#231f20;fill-opacity:1;fill-rule:nonzero;stroke:none" id="path156" inkscape:connector-curvature="0"></path><path d="m 8754.73,3437.02 c 42.25,10.68 76.89,5.1 116.44,-5.15 15.35,-4.41 39.89,-23.07 27.62,-45.82 -9.92,-20.31 -30.06,-17.61 -49.13,-24.47 -30.23,-10.4 -62.85,11.26 -87.49,1.82 -63.59,-24.03 -79.4,-97.44 -58.63,-158.69 21.67,-65.21 95.48,-97.91 159.08,-74.65 23.85,8.62 55.83,45.51 77.87,30 26.17,-20.21 42.07,-47.09 15.29,-67 -56.65,-43.92 -128.85,-44.12 -199.94,-24.21 -30.69,8.86 -63.86,20.06 -90.04,40.26 -45,35.8 -56.02,91.68 -50.16,146.37 9.99,82.07 50.62,158.47 139.09,181.54" style="fill:#ffffff;fill-opacity:1;fill-rule:nonzero;stroke:none" id="path158" inkscape:connector-curvature="0"></path><path d="m 9026.85,3306.95 c -15.11,15.05 -85.2,-79.23 -14.44,-93.58 48.52,-9.52 51.6,54.95 14.44,93.58 z m -87.81,-27.66 c 9.78,37.79 33.42,57.82 41,76.79 15.19,36.58 62.34,27.01 88.51,-0.48 17.91,-19.69 27.88,-42.24 34.46,-64.86 15.41,-52.6 -8.27,-98.11 -42.87,-136.53 -14.35,-15.77 -49.19,-17.3 -67.53,-7.68 -46.22,25.66 -67.06,81.46 -53.57,132.76" style="fill:#ffffff;fill-opacity:1;fill-rule:nonzero;stroke:none" id="path160" inkscape:connector-curvature="0"></path><path d="m 9178.89,3341.57 c 40.49,-10.39 1.55,-62.98 21.65,-89.32 39.28,37.86 43.77,127.81 114.14,102.74 3.42,-3.27 10.28,-9.8 13.7,-12.41 7.36,-26.64 4.7,-53.5 15.3,-76.72 32.62,37.69 67.32,98.24 124.85,76.85 16.99,-9.63 11.54,-33.23 14.64,-49.91 12.69,-79.49 16.68,-159.18 -10.88,-236.97 -6.15,-22.94 -39.56,-27.13 -63.35,-14.32 -3.34,-0.07 -7.05,13.24 -3.91,22.71 21.86,64.24 20.13,133.93 8.44,200.01 -0.25,10.06 -13.4,-0.31 -16.59,-7.11 -25.06,-43.54 -44.01,-90.93 -59.59,-137.57 -9.57,-20.37 -51.96,-41.54 -69.36,-15.15 -21.13,39.71 11.06,93.49 -6.84,139.29 -25.66,-46.89 -37.81,-96.82 -66.22,-141.1 -13.58,-20.46 -51.78,-20.74 -60.32,-1.5 -19.91,46.43 -6,106.47 -13.98,159.24 -6.45,43.42 4.99,95.34 58.32,81.24" style="fill:#ffffff;fill-opacity:1;fill-rule:nonzero;stroke:none" id="path162" inkscape:connector-curvature="0"></path><path d="m 9571.57,3351.31 c 40.5,-10.39 1.57,-62.98 21.67,-89.3 39.29,37.85 43.77,127.8 114.13,102.73 3.42,-3.27 10.29,-9.79 13.7,-12.4 7.38,-26.63 4.69,-53.52 15.32,-76.73 32.6,37.69 67.31,98.23 124.82,76.85 17.02,-9.63 11.56,-33.24 14.66,-49.92 12.69,-79.48 16.69,-159.16 -10.88,-236.97 -6.14,-22.95 -39.57,-27.14 -63.34,-14.31 -3.36,-0.08 -7.05,13.25 -3.94,22.71 21.88,64.23 20.15,133.93 8.46,200.02 -0.24,10.05 -13.4,-0.33 -16.6,-7.1 -25.06,-43.55 -44,-90.95 -59.59,-137.61 -9.56,-20.37 -51.95,-41.52 -69.35,-15.13 -21.13,39.72 11.07,93.47 -6.83,139.29 -25.66,-46.9 -37.82,-96.81 -66.23,-141.12 -13.59,-20.43 -51.79,-20.71 -60.31,-1.49 -19.91,46.44 -5.99,106.47 -13.99,159.24 -6.47,43.43 5,95.34 58.3,81.24" style="fill:#ffffff;fill-opacity:1;fill-rule:nonzero;stroke:none" id="path164" inkscape:connector-curvature="0"></path><path d="m 9943.24,3452.4 c 20.47,12.57 47.96,12.59 60.46,-4.54 12.5,-17.79 -4.83,-48.4 -16.71,-55.39 -15.22,-8.43 -36.07,-6.25 -51.92,10.79 -11.06,13.13 -1.06,42.88 8.17,49.14 z m -11,-124.33 c 8.29,17.66 31.59,24.28 51.92,16.06 12.18,-5.07 26.64,-20.14 15.53,-31.81 -20.03,-30 -7.24,-59.18 -15.3,-85.55 -10.6,-32.43 10.26,-61.42 2.33,-93.81 0.06,-2.66 -3.14,-8.78 -5.84,-8.85 -20.6,-6.54 -46.01,-9.87 -53.24,10.74 -12.31,37.9 -4.61,79 -5.54,116.53 -0.68,26.81 -1.33,52.93 10.14,76.69" style="fill:#ffffff;fill-opacity:1;fill-rule:nonzero;stroke:none" id="path166" inkscape:connector-curvature="0"></path><path d="m 10121.6,3454.81 c 2.5,32.24 44.7,33.29 70.6,17.83 3.4,-3.25 7,-13.22 3.9,-22.68 -18.4,-42.71 -23.9,-91.78 -22.7,-137.35 36.1,4.25 106.7,22.76 95,-19.76 -9.2,-33.11 -69.7,-29.91 -105.2,-30.77 -5,-42.39 21.7,-226.12 20.1,-268.39 -0.4,-12.74 -9.5,-23.03 -22.9,-23.36 -16.1,-0.41 -22.9,4.11 -28.7,20.74 -15,37.84 -15.8,232.27 -36.1,267.3 -25,-20.06 -72.8,-37.35 -86.5,-1.47 -3.6,9.3 6.2,22.96 16,29.89 25.2,13.36 61.5,10.91 77.1,30.75 12.3,16.41 8.2,45.79 11,68.68 2.8,23.53 6.2,45.73 8.4,68.59" style="fill:#ffffff;fill-opacity:1;fill-rule:nonzero;stroke:none" id="path168" inkscape:connector-curvature="0"></path><path d="m 10340.9,3370.42 c 40.5,-10.41 1.6,-63 21.7,-89.32 39.3,37.85 43.7,127.8 114.1,102.72 3.4,-3.25 10.3,-9.79 13.7,-12.4 7.4,-26.63 4.7,-53.5 15.3,-76.72 32.6,37.69 67.3,98.23 124.8,76.85 17,-9.63 11.6,-33.22 14.7,-49.91 12.7,-79.5 16.7,-159.17 -10.9,-236.98 -6.1,-22.94 -39.5,-27.13 -63.3,-14.3 -3.4,-0.08 -7.1,13.23 -3.9,22.71 21.8,64.23 20.1,133.92 8.4,200 -0.3,10.06 -13.4,-0.32 -16.6,-7.11 -25.1,-43.53 -44,-90.94 -59.6,-137.58 -9.6,-20.37 -51.9,-41.52 -69.4,-15.14 -21.1,39.7 11.1,93.48 -6.8,139.3 -25.6,-46.91 -37.8,-96.83 -66.2,-141.11 -13.6,-20.45 -51.8,-20.74 -60.3,-1.5 -19.9,46.43 -6,106.47 -14,159.24 -6.5,43.41 5,95.34 58.3,81.25" style="fill:#ffffff;fill-opacity:1;fill-rule:nonzero;stroke:none" id="path170" inkscape:connector-curvature="0"></path><path d="m 10836.1,3301.57 c 14,33.87 -42.1,49.9 -68.6,35.18 -29.1,-16.16 -18.8,-78.25 -2.7,-79.21 31.5,2.13 62.1,11.62 71.3,44.03 z m -34.5,96.35 c 52.4,-6.06 101.2,-55.15 102,-111.44 -10,-32.43 -84.3,-61.77 -109.2,-86.52 -2.7,-0.76 -14.5,-7.74 -10.4,-14.34 24.5,-40.3 66.9,-21.15 104,-0.79 24.5,-16.82 12.8,-57.34 -14.6,-62.04 -30,-5.43 -62.6,-14.29 -95.1,-1.01 -67.8,28.48 -84.4,103.83 -87.4,168.14 -3,66.3 44.8,115.77 110.7,108" style="fill:#ffffff;fill-opacity:1;fill-rule:nonzero;stroke:none" id="path172" inkscape:connector-curvature="0"></path><path d="m 10933.9,3362.99 c 7.5,20.32 45.7,20.58 53,-2.04 5.1,-16.63 -5.2,-33.66 -4.8,-51.08 2.7,-2.61 6.3,-11.23 6.2,-7.89 21.2,37.41 40.3,80.11 88.9,67.26 38.3,-58.73 36.8,-132.54 41.8,-200.13 3,-11.31 3.5,-30.75 -7.8,-34.4 -17.3,-5.12 -42.6,-12.44 -45.7,4.9 -10.1,56.09 -5.5,109.85 -18.2,163.84 -32.6,-37.68 -36,-89.4 -61.7,-134.97 -9.6,-17.66 -38.3,-21.05 -46.9,-1.16 -10,25.24 -4.1,56.89 -4.8,85.04 -0.9,36.85 -10.7,79.53 0,110.63" style="fill:#ffffff;fill-opacity:1;fill-rule:nonzero;stroke:none" id="path174" inkscape:connector-curvature="0"></path><path d="m 11235.3,3482.47 c 2.6,32.23 44.8,33.28 70.6,17.81 3.5,-3.25 7.1,-13.21 4,-22.68 -18.4,-42.7 -23.9,-91.77 -22.8,-137.35 36.1,4.24 106.7,22.76 95,-19.79 -9.2,-33.07 -69.6,-29.87 -105.1,-30.75 -5,-42.37 21.7,-226.12 20.1,-268.38 -0.4,-12.74 -9.5,-23.04 -22.9,-23.38 -16.1,-0.38 -22.9,4.13 -28.7,20.76 -15,37.86 -15.8,232.27 -36.2,267.3 -24.9,-20.06 -72.8,-37.33 -86.4,-1.46 -3.6,9.29 6.1,22.95 16,29.89 25.2,13.37 61.4,10.92 77,30.74 12.4,16.41 8.3,45.8 11.1,68.67 2.7,23.53 6.2,45.75 8.3,68.62" style="fill:#ffffff;fill-opacity:1;fill-rule:nonzero;stroke:none" id="path176" inkscape:connector-curvature="0"></path><path d="m 797.523,5908.34 c 41.114,10.39 74.817,4.99 113.317,-5 14.937,-4.32 38.805,-22.45 26.863,-44.6 -9.652,-19.76 -29.234,-17.12 -47.805,-23.82 -29.41,-10.11 -61.164,10.96 -85.132,1.79 -61.871,-23.38 -77.278,-94.81 -57.055,-154.42 21.09,-63.49 92.914,-95.28 154.805,-72.68 23.211,8.4 54.324,44.3 75.777,29.22 25.457,-19.67 40.947,-45.81 14.891,-65.21 -55.153,-42.73 -125.395,-42.92 -194.575,-23.56 -29.879,8.64 -62.148,19.53 -87.625,39.2 -43.796,34.83 -54.519,89.19 -48.812,142.42 9.73,79.88 49.254,154.23 135.351,176.66" style="fill:#ffffff;fill-opacity:1;fill-rule:nonzero;stroke:none" id="path178" inkscape:connector-curvature="0"></path><path d="m 1082.07,5829.54 c -17.61,17.52 -99.199,-92.24 -16.82,-108.93 56.49,-11.08 60.09,63.94 16.82,108.93 z m -102.242,-32.22 c 11.395,44.02 38.912,67.33 47.742,89.41 17.67,42.6 72.6,31.46 103.05,-0.57 20.86,-22.89 32.45,-49.15 40.13,-75.5 17.91,-61.22 -9.66,-114.21 -49.92,-158.93 -16.72,-18.36 -57.27,-20.16 -78.63,-8.96 -53.817,29.88 -78.067,94.85 -62.372,154.55" style="fill:#ffffff;fill-opacity:1;fill-rule:nonzero;stroke:none" id="path180" inkscape:connector-curvature="0"></path><path d="m 1212.1,5842.91 c 8.78,23.64 53.27,23.97 61.73,-2.38 5.95,-19.36 -6.06,-39.17 -5.55,-59.46 3.19,-3.04 7.35,-13.09 7.26,-9.19 24.67,43.55 46.86,93.29 103.43,78.29 44.63,-68.37 42.86,-154.28 48.72,-232.97 3.45,-13.19 4.01,-35.81 -9.15,-40.04 -20.15,-5.96 -49.6,-14.5 -53.23,5.7 -11.76,65.29 -6.3,127.86 -21.13,190.72 -37.94,-43.87 -41.9,-104.08 -71.81,-157.12 -11.2,-20.57 -44.67,-24.53 -54.62,-1.35 -11.65,29.38 -4.76,66.23 -5.57,99 -1.07,42.91 -12.45,92.58 -0.08,128.8" style="fill:#ffffff;fill-opacity:1;fill-rule:nonzero;stroke:none" id="path182" inkscape:connector-curvature="0"></path><path d="m 1691.42,5842.31 c 6.53,-11.54 -3.06,-34.42 -11.5,-40.08 -39.17,-25.97 -96.1,66.3 -154.47,27.39 -22.25,-15.41 14.53,-50.4 30.26,-55.47 48.02,-15.97 87.45,-32.18 124.95,-64.8 23.16,-21.28 15.64,-63.63 -0.07,-91.34 -38.88,-68.88 -181.5,-109.89 -230.71,-14.31 -11.47,21.56 13.68,46.4 35.48,48.5 18.69,2.03 21.76,-27.58 36.76,-34.22 37.14,-17.81 100.62,3.28 99.52,47.74 -0.27,10.92 -21.76,27.57 -36.74,33.44 -52.85,22.11 -113.25,33.87 -139.51,85.53 -31.98,61.65 89.42,139.61 141.48,118.27 38.63,-15.45 84.89,-23.66 104.55,-60.65" style="fill:#ffffff;fill-opacity:1;fill-rule:nonzero;stroke:none" id="path184" inkscape:connector-curvature="0"></path><path d="m 1753.33,5989.05 c 23.84,14.65 55.84,14.65 70.39,-5.28 14.57,-20.72 -5.62,-56.35 -19.47,-64.49 -17.72,-9.82 -41.98,-7.29 -60.43,12.55 -12.87,15.3 -1.23,49.93 9.51,57.22 z m -12.8,-144.74 c 9.64,20.54 36.76,28.24 60.42,18.68 14.2,-5.9 31.03,-23.43 18.1,-37.02 -23.33,-34.93 -8.44,-68.91 -17.82,-99.57 -12.34,-37.79 11.91,-71.53 2.71,-109.23 0.07,-3.13 -3.66,-10.25 -6.78,-10.33 -24,-7.62 -53.57,-11.46 -61.97,12.52 -14.37,44.14 -5.41,91.98 -6.5,135.66 -0.77,31.22 -1.53,61.65 11.84,89.29" style="fill:#ffffff;fill-opacity:1;fill-rule:nonzero;stroke:none" id="path186" inkscape:connector-curvature="0"></path><path d="m 2104.88,5852.58 c 6.53,-11.54 -3.05,-34.43 -11.49,-40.09 -39.18,-25.97 -96.1,66.3 -154.47,27.39 -22.25,-15.4 14.52,-50.4 30.26,-55.46 48.01,-15.98 87.45,-32.18 124.95,-64.82 23.16,-21.27 15.63,-63.62 -0.08,-91.33 -38.88,-68.88 -181.5,-109.88 -230.7,-14.31 -11.47,21.57 13.67,46.4 35.48,48.5 18.68,2.03 21.76,-27.58 36.76,-34.22 37.13,-17.82 100.62,3.29 99.51,47.74 -0.27,10.93 -21.76,27.58 -36.74,33.44 -52.85,22.11 -113.25,33.88 -139.51,85.54 -31.97,61.65 89.43,139.6 141.48,118.26 38.64,-15.44 84.89,-23.66 104.55,-60.64" style="fill:#ffffff;fill-opacity:1;fill-rule:nonzero;stroke:none" id="path188" inkscape:connector-curvature="0"></path><path d="m 2245.66,5998.93 c 2.97,37.54 52.11,38.77 82.22,20.77 4,-3.81 8.19,-15.41 4.56,-26.43 -21.41,-49.72 -27.79,-106.85 -26.47,-159.91 42.03,4.95 124.24,26.52 110.65,-23 -10.77,-38.52 -81.11,-34.8 -122.45,-35.83 -5.82,-49.32 25.26,-263.23 23.35,-312.46 -0.41,-14.83 -11.04,-26.81 -26.64,-27.19 -18.72,-0.47 -26.66,4.8 -33.38,24.16 -17.5,44.05 -18.43,270.4 -42.08,311.19 -29.08,-23.36 -84.79,-43.47 -100.65,-1.72 -4.17,10.83 7.13,26.72 18.64,34.82 29.29,15.54 71.51,12.71 89.67,35.78 14.36,19.09 9.61,53.32 12.85,79.95 3.22,27.4 7.26,53.26 9.73,79.87" style="fill:#ffffff;fill-opacity:1;fill-rule:nonzero;stroke:none" id="path190" inkscape:connector-curvature="0"></path><path d="m 2604.77,5808.77 c 16.2,39.44 -49.05,58.11 -79.86,40.96 -33.87,-18.8 -21.93,-91.1 -3.17,-92.19 36.63,2.46 72.26,13.5 83.03,51.23 z m -40.25,112.2 c 61.07,-7.07 117.91,-64.21 118.75,-129.75 -11.55,-37.76 -98.13,-71.92 -127.08,-100.75 -3.1,-0.85 -16.95,-9 -12.08,-16.68 28.49,-46.91 77.9,-24.62 121.02,-0.89 28.59,-19.6 14.92,-66.78 -16.94,-72.25 -34.97,-6.34 -72.97,-16.64 -110.82,-1.19 -78.89,33.18 -98.23,120.9 -101.65,195.75 -3.48,77.19 52.07,134.79 128.8,125.76" style="fill:#ffffff;fill-opacity:1;fill-rule:nonzero;stroke:none" id="path192" inkscape:connector-curvature="0"></path><path d="m 2718.53,5880.3 c 8.77,23.64 53.27,23.97 61.73,-2.38 5.94,-19.36 -6.06,-39.17 -5.55,-59.46 3.19,-3.04 7.35,-13.09 7.25,-9.2 24.68,43.56 46.87,93.3 103.45,78.29 44.62,-68.36 42.85,-154.27 48.71,-232.96 3.44,-13.19 4,-35.81 -9.15,-40.04 -20.15,-5.97 -49.6,-14.51 -53.23,5.7 -11.77,65.28 -6.3,127.86 -21.12,190.72 -37.95,-43.88 -41.92,-104.08 -71.83,-157.12 -11.19,-20.57 -44.67,-24.53 -54.61,-1.35 -11.66,29.37 -4.77,66.23 -5.58,98.99 -1.06,42.91 -12.44,92.58 -0.07,128.81" style="fill:#ffffff;fill-opacity:1;fill-rule:nonzero;stroke:none" id="path194" inkscape:connector-curvature="0"></path><path d="m 3005.77,5912.4 c 41.96,39.28 95.96,96.84 155.9,71.79 9.46,-3.66 15.96,-13.65 10.9,-30.18 -15.2,-47.98 -58.97,-45.94 -95.73,-74.19 -30.61,-24.96 -57.14,-56.85 -58.53,-95.12 -1.02,-21.88 3.61,-51.45 18.18,-72.16 17.03,-25.33 45.18,-27.75 72.74,-37.23 41.73,-14.56 67.65,42.29 101.94,44.69 34.26,3.2 13.64,-46.5 6.15,-59.16 -37.52,-61.05 -110.28,-54.27 -170.78,-38.58 -73.08,19.25 -113.11,90.85 -102.54,168.4 7.32,50.91 28.2,90.46 61.77,121.74" style="fill:#ffffff;fill-opacity:1;fill-rule:nonzero;stroke:none" id="path196" inkscape:connector-curvature="0"></path><path d="m 3242.72,5958.1 c 15.02,23.78 56.29,27.94 69.43,1.72 19.7,-38.55 6.01,-84.93 14.96,-130.77 4.18,-11.61 11.7,0.29 15.51,4.29 22.17,50.51 36.33,108.62 81.69,137.07 19.23,11.41 68.53,6.38 50.69,-29.98 -37.89,-77.42 -93,-152.96 -97.73,-245.18 -3.32,-54.73 -40.91,-144.65 -77.93,-193.97 -27.24,-35.03 -95.8,-40.63 -116.24,-2.9 -12.29,23.12 -24.06,57.17 2.08,73.45 19.2,12.18 46.21,-6.66 50.68,-29.2 53.56,43.49 44.65,56.54 57.05,123.19 7.53,42.34 -29.22,76.56 -34.07,114.69 -4.97,42.82 -13.71,80.85 -18.68,123.66 -2.03,18.68 -8.85,41.93 2.56,53.93" style="fill:#ffffff;fill-opacity:1;fill-rule:nonzero;stroke:none" id="path198" inkscape:connector-curvature="0"></path><path d="m 757.855,3415.19 c 40.204,10.16 73.161,4.87 110.793,-4.89 14.614,-4.22 37.954,-21.96 26.274,-43.63 -9.438,-19.31 -28.582,-16.72 -46.742,-23.29 -28.762,-9.88 -59.801,10.74 -83.242,1.76 -60.5,-22.89 -75.551,-92.71 -55.793,-150.98 20.621,-62.08 90.855,-93.18 151.375,-71.07 22.687,8.21 53.109,43.3 74.089,28.56 24.899,-19.22 40.039,-44.8 14.571,-63.76 -53.926,-41.79 -122.625,-41.97 -190.27,-23.05 -29.207,8.44 -60.769,19.12 -85.668,38.34 -42.828,34.05 -53.316,87.23 -47.734,139.26 9.508,78.09 48.16,150.8 132.347,172.75" style="fill:#ffffff;fill-opacity:1;fill-rule:nonzero;stroke:none" id="path200" inkscape:connector-curvature="0"></path><path d="m 1036.09,3338.13 c -17.21,17.13 -96.985,-90.19 -16.43,-106.52 55.22,-10.83 58.74,62.54 16.43,106.52 z m -99.969,-31.49 c 11.141,43.01 38.059,65.82 46.676,87.41 17.283,41.64 70.993,30.77 100.783,-0.55 20.4,-22.4 31.72,-48.08 39.23,-73.83 17.51,-59.88 -9.44,-111.68 -48.82,-155.4 -16.34,-17.97 -55.98,-19.72 -76.873,-8.78 -52.625,29.23 -76.34,92.77 -60.996,151.15" style="fill:#ffffff;fill-opacity:1;fill-rule:nonzero;stroke:none" id="path202" inkscape:connector-curvature="0"></path><path d="m 1209.16,3377.53 c 46.09,-11.81 1.78,-71.71 24.66,-101.67 44.73,43.11 49.82,145.51 129.92,116.95 3.9,-3.71 11.72,-11.15 15.62,-14.11 8.37,-30.33 5.32,-60.93 17.43,-87.35 37.1,42.91 76.61,111.82 142.09,87.49 19.36,-10.97 13.15,-37.84 16.67,-56.82 14.46,-90.49 19.01,-181.2 -12.39,-269.77 -6.98,-26.12 -45.03,-30.88 -72.11,-16.28 -3.81,-0.1 -8,15.05 -4.46,25.84 24.9,73.13 22.94,152.46 9.63,227.7 -0.29,11.44 -15.27,-0.37 -18.88,-8.1 -28.55,-49.57 -50.1,-103.52 -67.87,-156.63 -10.88,-23.17 -59.12,-47.27 -78.95,-17.23 -24.03,45.19 12.61,106.41 -7.76,158.57 -29.21,-53.39 -43.06,-110.22 -75.4,-160.63 -15.45,-23.3 -58.94,-23.61 -68.65,-1.71 -22.69,52.87 -6.83,121.2 -15.95,181.25 -7.34,49.46 5.7,108.55 66.4,92.5" style="fill:#ffffff;fill-opacity:1;fill-rule:nonzero;stroke:none" id="path204" inkscape:connector-curvature="0"></path><path d="m 1672.15,3237.88 c 28.55,-12.25 87.51,11.34 93.1,62.62 3.27,22.21 -12.17,29.48 -26.75,32.16 -16.97,7.21 -42.22,9.64 -51.87,-1.28 -19.34,-20.34 -31.46,-85.53 -14.48,-93.5 z m -74.12,126.38 c 20.92,18.1 -1.23,49.6 22.77,66.99 20.23,15.02 45.33,18.7 59.5,1.5 10.94,-10.43 4.68,-35.01 11.62,-37.89 62.73,-5.32 151.73,-23.72 145.93,-97.9 -8.17,-100.96 -115.93,-96.01 -181.68,-122.07 -12,-70.51 -6.71,-98.63 14.84,-167.55 0.88,-4.55 11.84,-15.72 17.43,-25.53 14.43,-27.89 -34.4,-29.09 -55.94,-21.99 -28.48,9.23 -31.73,48.08 -36.32,79.26 -16.25,101.1 2,196.21 9.49,294.1 1.26,10.7 -14.24,20.25 -7.64,31.08" style="fill:#ffffff;fill-opacity:1;fill-rule:nonzero;stroke:none" id="path206" inkscape:connector-curvature="0"></path><path d="m 2020.09,3305.3 c 15.84,38.57 -47.97,56.82 -78.09,40.05 -33.13,-18.39 -21.44,-89.08 -3.11,-90.15 35.83,2.41 70.67,13.2 81.2,50.1 z m -39.36,109.71 c 59.71,-6.93 115.29,-62.8 116.11,-126.9 -11.29,-36.9 -95.96,-70.31 -124.25,-98.49 -3.04,-0.84 -16.58,-8.8 -11.82,-16.31 27.86,-45.87 76.16,-24.08 118.33,-0.89 27.97,-19.15 14.61,-65.28 -16.56,-70.64 -34.2,-6.2 -71.34,-16.27 -108.36,-1.16 -77.13,32.43 -96.05,118.21 -99.4,191.43 -3.4,75.47 50.93,131.76 125.95,122.96" style="fill:#ffffff;fill-opacity:1;fill-rule:nonzero;stroke:none" id="path208" inkscape:connector-curvature="0"></path><path d="m 2230.39,3505.15 c 2.91,36.7 50.97,37.91 80.41,20.34 3.91,-3.73 8,-15.08 4.45,-25.85 -20.92,-48.61 -27.17,-104.5 -25.88,-156.35 41.09,4.83 121.49,25.89 108.18,-22.51 -10.51,-37.65 -79.3,-34.04 -119.73,-35.04 -5.68,-48.24 24.7,-257.4 22.84,-305.5 -0.4,-14.53 -10.8,-26.24 -26.05,-26.62 -18.3,-0.46 -26.07,4.69 -32.65,23.63 -17.1,43.09 -18,264.42 -41.13,304.27 -28.44,-22.83 -82.91,-42.48 -98.43,-1.66 -4.07,10.58 6.98,26.13 18.24,34.03 28.63,15.23 69.92,12.41 87.68,35.01 14.04,18.67 9.39,52.14 12.56,78.18 3.16,26.77 7.09,52.07 9.51,78.07" style="fill:#ffffff;fill-opacity:1;fill-rule:nonzero;stroke:none" id="path210" inkscape:connector-curvature="0"></path><path d="m 2581.55,3319.22 c 15.84,38.58 -47.97,56.83 -78.08,40.06 -33.14,-18.39 -21.45,-89.08 -3.11,-90.16 35.82,2.43 70.66,13.21 81.19,50.1 z m -39.36,109.73 c 59.71,-6.93 115.29,-62.8 116.12,-126.89 -11.3,-36.93 -95.96,-70.33 -124.26,-98.5 -3.03,-0.84 -16.58,-8.81 -11.81,-16.33 27.85,-45.85 76.16,-24.05 118.33,-0.88 27.96,-19.15 14.6,-65.29 -16.57,-70.63 -34.2,-6.2 -71.34,-16.27 -108.36,-1.17 -77.13,32.43 -96.05,118.23 -99.4,191.43 -3.39,75.49 50.93,131.77 125.95,122.97" style="fill:#ffffff;fill-opacity:1;fill-rule:nonzero;stroke:none" id="path212" inkscape:connector-curvature="0"></path><path d="m 2692.79,3389.17 c 8.59,23.1 52.09,23.41 60.37,-2.32 5.8,-18.93 -5.93,-38.32 -5.44,-58.14 3.13,-2.97 7.2,-12.81 7.1,-9 24.14,42.6 45.82,91.21 101.15,76.56 43.64,-66.85 41.91,-150.86 47.63,-227.82 3.38,-12.9 3.93,-35.02 -8.95,-39.13 -19.7,-5.86 -48.5,-14.2 -52.03,5.56 -11.52,63.83 -6.16,125.03 -20.67,186.51 -37.1,-42.91 -40.98,-101.78 -70.23,-153.65 -10.94,-20.13 -43.67,-23.98 -53.39,-1.32 -11.41,28.73 -4.66,64.76 -5.46,96.79 -1.04,41.96 -12.17,90.55 -0.08,125.96" style="fill:#ffffff;fill-opacity:1;fill-rule:nonzero;stroke:none" id="path214" inkscape:connector-curvature="0"></path><path d="m 3004.19,3421.32 c 41.03,38.42 93.83,94.68 152.45,70.18 9.24,-3.58 15.6,-13.34 10.65,-29.49 -14.86,-46.94 -57.65,-44.94 -93.61,-72.57 -29.93,-24.38 -55.86,-55.56 -57.22,-93 -1,-21.39 3.54,-50.29 17.77,-70.54 16.64,-24.79 44.18,-27.17 71.13,-36.4 40.81,-14.27 66.14,41.33 99.67,43.68 33.51,3.11 13.34,-45.46 6.01,-57.86 -36.68,-59.68 -107.83,-53.05 -166.98,-37.72 -71.46,18.82 -110.6,88.84 -100.27,164.67 7.16,49.79 27.57,88.47 60.4,119.05" style="fill:#ffffff;fill-opacity:1;fill-rule:nonzero;stroke:none" id="path216" inkscape:connector-curvature="0"></path><path d="m 3403.16,3339.61 c 15.83,38.58 -47.98,56.82 -78.1,40.05 -33.13,-18.37 -21.44,-89.07 -3.11,-90.13 35.82,2.4 70.67,13.19 81.21,50.08 z m -39.37,109.73 c 59.72,-6.92 115.29,-62.79 116.12,-126.89 -11.3,-36.93 -95.96,-70.34 -124.27,-98.5 -3.02,-0.85 -16.57,-8.82 -11.81,-16.33 27.86,-45.86 76.17,-24.06 118.34,-0.88 27.95,-19.14 14.6,-65.29 -16.56,-70.63 -34.2,-6.2 -71.35,-16.28 -108.37,-1.16 -77.12,32.42 -96.05,118.21 -99.4,191.41 -3.4,75.48 50.92,131.78 125.95,122.98" style="fill:#ffffff;fill-opacity:1;fill-rule:nonzero;stroke:none" id="path218" inkscape:connector-curvature="0"></path><path d="m 4706.73,2007.03 c 6.32,50.37 55.1,69.56 102.27,38.53 4.85,-4.6 15.59,-17.61 11.1,-27.19 -48.33,-151.77 -8.48,-307.06 -9.46,-458.6 -0.62,-13.28 -35.42,-22.69 -61.31,-10.05 -46.94,21.55 -43.57,76.57 -44.7,122.01 -2.72,109.79 -13.02,219.39 2.1,335.3" style="fill:#ffffff;fill-opacity:1;fill-rule:nonzero;stroke:none" id="path220" inkscape:connector-curvature="0"></path><path d="m 4870.08,1873.77 c 10.65,28.67 64.63,29.05 74.9,-2.88 7.21,-23.49 -7.35,-47.54 -6.74,-72.14 3.88,-3.7 8.91,-15.89 8.8,-11.14 29.94,52.81 56.86,113.16 125.49,94.96 54.15,-82.93 52.01,-187.16 59.11,-282.63 4.18,-16.01 4.86,-43.45 -11.11,-48.58 -24.44,-7.24 -60.18,-17.61 -64.57,6.93 -14.28,79.19 -7.64,155.1 -25.63,231.37 -46.03,-53.22 -50.85,-126.27 -87.14,-190.62 -13.59,-24.95 -54.19,-29.76 -66.25,-1.64 -14.14,35.64 -5.78,80.35 -6.77,120.1 -1.29,52.06 -15.1,112.32 -0.09,156.27" style="fill:#ffffff;fill-opacity:1;fill-rule:nonzero;stroke:none" id="path222" inkscape:connector-curvature="0"></path><path d="m 5314.78,2042.96 c 3.6,45.54 63.23,47.03 99.76,25.21 4.84,-4.61 9.93,-18.69 5.53,-32.06 -25.98,-60.31 -33.72,-129.64 -32.12,-194.02 50.99,6.01 150.73,32.18 134.22,-27.9 -13.04,-46.72 -98.39,-42.23 -148.56,-43.47 -7.03,-59.85 30.66,-319.33 28.36,-379.05 -0.5,-18.01 -13.4,-32.54 -32.33,-33.02 -22.72,-0.56 -32.35,5.84 -40.5,29.29 -21.22,53.48 -22.35,328.08 -51.05,377.57 -35.28,-28.33 -102.87,-52.75 -122.11,-2.08 -5.07,13.13 8.66,32.41 22.62,42.23 35.52,18.88 86.76,15.41 108.79,43.43 17.41,23.14 11.65,64.67 15.58,96.98 3.91,33.25 8.82,64.62 11.81,96.89" style="fill:#ffffff;fill-opacity:1;fill-rule:nonzero;stroke:none" id="path224" inkscape:connector-curvature="0"></path><path d="m 5750.44,1812.29 c 19.65,47.82 -59.51,70.49 -96.88,49.66 -41.1,-22.8 -26.62,-110.5 -3.85,-111.83 44.44,3 87.67,16.37 100.73,62.17 z m -48.83,136.09 c 74.08,-8.57 143.05,-77.88 144.07,-157.42 -14.01,-45.81 -119.05,-87.23 -154.18,-122.21 -3.77,-1.04 -20.56,-10.92 -14.64,-20.25 34.56,-56.91 94.49,-29.85 146.82,-1.08 34.67,-23.77 18.11,-81.02 -20.56,-87.65 -42.42,-7.69 -88.53,-20.19 -134.45,-1.44 -95.71,40.24 -119.18,146.68 -123.32,237.48 -4.22,93.66 63.18,163.52 156.26,152.57" style="fill:#ffffff;fill-opacity:1;fill-rule:nonzero;stroke:none" id="path226" inkscape:connector-curvature="0"></path><path d="m 5940.87,1847.29 c 4.42,-25.44 15.81,-64.94 37.59,-64.4 36.04,-1.95 45.2,48.48 63.34,81.12 9.97,18.26 12.83,55.26 1.05,72.01 -13.8,21.45 -53.95,-1.34 -75.27,-19.86 -20.39,-18.51 -31.2,-40.55 -26.71,-68.87 z m 190.57,144.9 c 7.66,-3.59 22.11,-13.66 19.61,-27.91 -58.3,-131.2 -22.54,-274.27 -8.73,-411.24 5.98,-50.06 8.31,-105.88 -39.27,-134.52 -73.74,-43.51 -184.48,-8.36 -214.93,74.22 -12.26,35.68 38.32,58.73 56.83,37.4 30.06,-27.66 56.01,-81 106.94,-73.1 10.33,4.04 13.75,18.34 17.35,25.99 12.17,82.68 -4.02,161.85 -21.22,244.77 -0.16,6.63 10.46,36.25 -7.25,24.44 -35.42,-22.66 -72.07,-33.98 -107.44,-20.67 -25.81,9.78 -40.56,31.2 -55.39,56.41 -23.1,53.4 -17.9,111.3 28.43,152.24 59.3,52.6 149.28,89.87 225.07,51.97" style="fill:#ffffff;fill-opacity:1;fill-rule:nonzero;stroke:none" id="path228" inkscape:connector-curvature="0"></path><path d="m 6183.9,1976.45 c 46.28,43.77 104.46,-11.61 96.53,-73.36 56.55,10.87 68.75,91.66 136.42,74.42 23.89,-8.88 53.49,-18.56 34.29,-46.51 -36.53,-53.95 -92.74,-79.01 -130.13,-136.77 -12.79,-19.26 -3.57,-47.44 -12.55,-66.6 -9.11,-14.43 -8.53,-38.11 10.98,-61.29 19.52,-23.17 15.97,-70.63 -7.11,-94.89 -18.23,-28.85 -60.81,-29.91 -80.35,-6.73 -14.41,9.12 -15.71,23.3 -15.24,42.25 1.9,75.82 -8.61,156.06 -19.95,231.54 -6.85,47.19 -54.55,99.01 -12.89,137.94" style="fill:#ffffff;fill-opacity:1;fill-rule:nonzero;stroke:none" id="path230" inkscape:connector-curvature="0"></path><path d="m 6530.88,2075.99 c 28.92,17.76 67.76,17.78 85.4,-6.42 17.68,-25.12 -6.82,-68.35 -23.61,-78.25 -21.5,-11.87 -50.94,-8.82 -73.31,15.24 -15.62,18.54 -1.51,60.57 11.52,69.43 z m -15.53,-175.59 c 11.69,24.91 44.61,34.24 73.31,22.64 17.24,-7.14 37.65,-28.41 21.96,-44.91 -28.32,-42.36 -10.24,-83.58 -21.63,-120.81 -14.96,-45.82 14.47,-86.77 3.3,-132.51 0.08,-3.79 -4.44,-12.42 -8.23,-12.52 -29.11,-9.24 -64.99,-13.91 -75.19,15.19 -17.42,53.55 -6.57,111.59 -7.86,164.59 -0.95,37.87 -1.87,74.76 14.34,108.33" style="fill:#ffffff;fill-opacity:1;fill-rule:nonzero;stroke:none" id="path232" inkscape:connector-curvature="0"></path><path d="m 6801.65,2079.87 c 3.6,45.54 63.23,47.02 99.77,25.2 4.85,-4.62 9.92,-18.7 5.51,-32.06 -25.95,-60.33 -33.71,-129.64 -32.11,-194.01 51,6 150.74,32.18 134.23,-27.9 -13.04,-46.75 -98.41,-42.23 -148.56,-43.48 -7.04,-59.84 30.65,-319.32 28.35,-379.07 -0.5,-18 -13.39,-32.52 -32.33,-33.01 -22.71,-0.55 -32.35,5.84 -40.5,29.32 -21.22,53.45 -22.36,328.06 -51.04,377.55 -35.29,-28.33 -102.87,-52.75 -122.13,-2.09 -5.05,13.14 8.68,32.44 22.64,42.23 35.52,18.89 86.75,15.42 108.79,43.43 17.41,23.17 11.64,64.68 15.57,96.99 3.92,33.26 8.81,64.61 11.81,96.9" style="fill:#ffffff;fill-opacity:1;fill-rule:nonzero;stroke:none" id="path234" inkscape:connector-curvature="0"></path><path d="m 7048.75,2006.43 c 18.22,28.89 68.29,33.9 84.22,2.1 23.9,-46.77 7.3,-103.04 18.15,-158.65 5.09,-14.09 14.19,0.36 18.81,5.2 26.91,61.29 44.09,131.79 99.11,166.29 23.33,13.86 83.15,7.77 61.52,-36.35 -45.98,-93.95 -112.84,-185.58 -118.59,-297.49 -4.03,-66.38 -49.63,-175.47 -94.55,-235.3 -33.03,-42.49 -116.21,-49.3 -141.01,-3.51 -14.92,28.05 -29.19,69.36 2.52,89.09 23.31,14.78 56.08,-8.08 61.49,-35.41 64.98,52.75 54.16,68.58 69.21,149.45 9.15,51.39 -35.45,92.9 -41.34,139.15 -6.02,51.94 -16.65,98.07 -22.66,150.02 -2.47,22.66 -10.74,50.89 3.12,65.41" style="fill:#ffffff;fill-opacity:1;fill-rule:nonzero;stroke:none" id="path236" inkscape:connector-curvature="0"></path><path d="m 4669.38,7509.07 c 78.8,103.92 216.21,108.26 333.26,141.1 25.08,7.17 52.61,-8.99 61.53,-29.34 11.85,-24.97 -18.49,-46.3 -38.95,-51.49 -71.32,-27.96 -147.3,-19.55 -212.81,-56.72 -10.14,-5.88 -20.19,-15.48 -15.26,-25.64 79.59,-115.9 290.02,-151.83 252.66,-305.24 -32.22,-133.64 -226.13,-160.91 -344.31,-110.51 -52.94,22.07 -22.84,91.11 22.46,112.81 26.06,5.32 26.94,-30.2 46.71,-35.32 20.69,-4.18 41.14,1.02 61.96,-8.76 41.62,-18.61 76.52,7.51 111.67,23.35 20.18,16.41 19.55,41.65 8.76,61.97 -74.26,89.82 -181.72,122.7 -256.01,213.47 -22.19,27.52 -51.61,44.56 -31.67,70.32" style="fill:#231f20;fill-opacity:1;fill-rule:nonzero;stroke:none" id="path238" inkscape:connector-curvature="0"></path><path d="m 5125.28,7571.83 c 28.58,17.54 66.92,17.56 84.35,-6.32 17.46,-24.83 -6.74,-67.53 -23.34,-77.3 -21.22,-11.75 -50.29,-8.73 -72.4,15.05 -15.42,18.32 -1.48,59.83 11.39,68.57 z m -15.33,-173.44 c 11.55,24.6 44.06,33.83 72.4,22.38 17.02,-7.07 37.19,-28.09 21.69,-44.37 -27.97,-41.85 -10.11,-82.58 -21.36,-119.33 -14.78,-45.27 14.28,-85.72 3.25,-130.89 0.09,-3.74 -4.38,-12.27 -8.12,-12.36 -28.77,-9.14 -64.21,-13.76 -74.27,15 -17.22,52.88 -6.48,110.22 -7.78,162.57 -0.93,37.4 -1.83,73.86 14.19,107" style="fill:#231f20;fill-opacity:1;fill-rule:nonzero;stroke:none" id="path240" inkscape:connector-curvature="0"></path><path d="m 5252.65,7415.96 c 10.52,28.32 63.83,28.71 73.98,-2.85 7.11,-23.21 -7.27,-46.95 -6.65,-71.25 3.82,-3.65 8.8,-15.69 8.68,-11.02 29.58,52.19 56.16,111.79 123.96,93.82 53.48,-81.92 51.35,-184.87 58.38,-279.19 4.13,-15.79 4.81,-42.91 -10.96,-47.97 -24.15,-7.16 -59.44,-17.39 -63.79,6.84 -14.11,78.22 -7.54,153.22 -25.32,228.55 -45.47,-52.58 -50.23,-124.74 -86.07,-188.29 -13.41,-24.66 -53.52,-29.39 -65.44,-1.62 -13.97,35.19 -5.7,79.36 -6.69,118.62 -1.27,51.43 -14.9,110.96 -0.08,154.36" style="fill:#231f20;fill-opacity:1;fill-rule:nonzero;stroke:none" id="path242" inkscape:connector-curvature="0"></path><path d="m 5615.59,7454.91 c 50.27,47.08 114.99,116.03 186.82,86.02 11.34,-4.41 19.12,-16.38 13.06,-36.17 -18.21,-57.51 -70.66,-55.07 -114.72,-88.9 -36.68,-29.92 -68.47,-68.12 -70.14,-113.99 -1.23,-26.24 4.34,-61.65 21.79,-86.47 20.4,-30.36 54.15,-33.27 87.17,-44.6 50.01,-17.47 81.06,50.64 122.15,53.54 41.06,3.82 16.35,-55.73 7.38,-70.92 -44.96,-73.14 -132.17,-65.02 -204.66,-46.24 -87.57,23.08 -135.54,108.89 -122.88,201.82 8.78,61.03 33.8,108.42 74.03,145.91" style="fill:#231f20;fill-opacity:1;fill-rule:nonzero;stroke:none" id="path244" inkscape:connector-curvature="0"></path><path d="m 6085.84,7354.31 c 19.4,47.26 -58.79,69.65 -95.7,49.07 -40.59,-22.51 -26.3,-109.15 -3.8,-110.46 43.88,2.95 86.59,16.18 99.5,61.39 z m -48.24,134.45 c 73.17,-8.47 141.29,-76.95 142.31,-155.49 -13.86,-45.25 -117.61,-86.19 -152.29,-120.71 -3.72,-1.03 -20.33,-10.8 -14.48,-20.02 34.14,-56.21 93.35,-29.47 145.02,-1.07 34.26,-23.47 17.9,-80.01 -20.3,-86.56 -41.9,-7.6 -87.44,-19.95 -132.79,-1.43 -94.54,39.75 -117.73,144.88 -121.82,234.58 -4.18,92.51 62.4,161.52 154.35,150.7" style="fill:#231f20;fill-opacity:1;fill-rule:nonzero;stroke:none" id="path246" inkscape:connector-curvature="0"></path><path d="m 6208.31,7508.91 c 45.7,43.22 103.16,-11.48 95.34,-72.48 55.86,10.74 67.89,90.55 134.74,73.5 23.61,-8.77 52.85,-18.33 33.89,-45.93 -36.11,-53.28 -91.62,-78.04 -128.55,-135.09 -12.63,-19.03 -3.52,-46.85 -12.39,-65.79 -9.01,-14.26 -8.43,-37.63 10.85,-60.53 19.28,-22.92 15.77,-69.78 -7.02,-93.72 -18.01,-28.52 -60.07,-29.56 -79.36,-6.65 -14.26,9 -15.54,23 -15.07,41.72 1.89,74.89 -8.49,154.14 -19.7,228.7 -6.77,46.6 -53.89,97.82 -12.73,136.27" style="fill:#231f20;fill-opacity:1;fill-rule:nonzero;stroke:none" id="path248" inkscape:connector-curvature="0"></path><path d="m 6551.07,7607.22 c 28.56,17.54 66.92,17.56 84.34,-6.34 17.46,-24.82 -6.74,-67.52 -23.31,-77.29 -21.24,-11.74 -50.32,-8.73 -72.42,15.06 -15.42,18.32 -1.49,59.83 11.39,68.57 z m -15.34,-173.46 c 11.55,24.62 44.06,33.85 72.4,22.39 17.03,-7.06 37.19,-28.08 21.68,-44.36 -27.94,-41.86 -10.09,-82.58 -21.35,-119.34 -14.78,-45.27 14.29,-85.71 3.25,-130.88 0.09,-3.74 -4.38,-12.27 -8.12,-12.37 -28.76,-9.13 -64.2,-13.75 -74.26,15.01 -17.21,52.88 -6.48,110.21 -7.79,162.56 -0.91,37.4 -1.82,73.86 14.19,106.99" style="fill:#231f20;fill-opacity:1;fill-rule:nonzero;stroke:none" id="path250" inkscape:connector-curvature="0"></path><path d="m 6818.54,7611.04 c 3.55,45 62.46,46.46 98.53,24.9 4.79,-4.56 9.81,-18.46 5.47,-31.67 -25.66,-59.57 -33.31,-128.05 -31.73,-191.63 50.37,5.93 148.89,31.77 132.58,-27.57 -12.88,-46.16 -97.19,-41.71 -146.74,-42.93 -6.95,-59.11 30.28,-315.45 28.01,-374.43 -0.5,-17.78 -13.24,-32.12 -31.93,-32.59 -22.45,-0.55 -31.96,5.75 -40.01,28.93 -20.96,52.82 -22.08,324.06 -50.41,372.94 -34.87,-28 -101.62,-52.1 -120.63,-2.06 -5.01,12.98 8.56,32.02 22.33,41.72 35.11,18.64 85.7,15.22 107.45,42.89 17.22,22.88 11.53,63.9 15.42,95.8 3.85,32.83 8.71,63.83 11.66,95.7" style="fill:#231f20;fill-opacity:1;fill-rule:nonzero;stroke:none" id="path252" inkscape:connector-curvature="0"></path><path d="m 7062.64,7538.53 c 17.99,28.5 67.46,33.47 83.2,2.06 23.6,-46.18 7.21,-101.79 17.92,-156.71 5.01,-13.92 14.03,0.35 18.57,5.14 26.58,60.52 43.56,130.16 97.91,164.26 23.04,13.67 82.12,7.65 60.77,-35.91 -45.43,-92.8 -111.48,-183.32 -117.14,-293.83 -3.99,-65.6 -49.03,-173.35 -93.39,-232.46 -32.64,-41.96 -114.8,-48.69 -139.3,-3.45 -14.72,27.7 -28.83,68.52 2.49,88 23.03,14.61 55.39,-7.99 60.73,-34.98 64.19,52.12 53.53,67.75 68.37,147.64 9.04,50.73 -35.02,91.73 -40.82,137.43 -5.95,51.3 -16.43,96.88 -22.39,148.18 -2.43,22.39 -10.6,50.25 3.08,64.63" style="fill:#231f20;fill-opacity:1;fill-rule:nonzero;stroke:none" id="path254" inkscape:connector-curvature="0"></path><path d="m 8770.25,5814.4 c 52.15,-11.21 111.58,7.25 149.14,42.15 8.82,4.7 25.49,18.52 16.25,30.8 -26.29,51.19 -83.1,70.36 -130.6,74.54 -34.04,2.72 -24.5,-56.93 -31.91,-83.03 -6.63,-20.74 -24.44,-59.61 -2.88,-64.46 z m -81.14,135.67 c -4.99,21.32 -18.25,51.39 2.88,64.43 105.62,66.99 244.59,14.13 311.48,-87.01 39.9,-58.92 -31.07,-117 -82.06,-152.23 19.23,-89.81 48.38,-183.86 92.39,-264.12 14.04,-25.57 -41.81,-44.83 -63.69,-27.5 -79.32,62.39 -59,180 -126.01,250.76 -12.84,13.08 -56.59,11.1 -65.12,-6.08 -19.72,-69.34 22.3,-141.6 26.68,-210.33 1.31,-16.94 -33.19,-31.21 -59.21,-27.39 -12.62,4.17 -21.86,16.45 -26.56,25.27 -31.4,76.99 -25.5,162.97 -27.51,244.27 -1.6,64.32 39.58,134.17 16.73,189.93" style="fill:#231f20;fill-opacity:1;fill-rule:nonzero;stroke:none" id="path256" inkscape:connector-curvature="0"></path><path d="m 9214.45,5745.87 c 18.55,45.16 -56.18,66.55 -91.45,46.9 -38.81,-21.52 -25.13,-104.32 -3.63,-105.58 41.93,2.83 82.74,15.47 95.08,58.68 z m -46.09,128.49 c 69.93,-8.11 135.03,-73.53 135.98,-148.61 -13.22,-43.24 -112.39,-82.34 -145.52,-115.36 -3.56,-0.97 -19.41,-10.3 -13.83,-19.13 32.62,-53.69 89.19,-28.16 138.57,-1.01 32.76,-22.43 17.1,-76.45 -19.37,-82.73 -40.05,-7.25 -83.57,-19.06 -126.91,-1.35 -90.37,37.98 -112.51,138.45 -116.43,224.17 -3.98,88.4 59.64,154.36 147.51,144.02" style="fill:#231f20;fill-opacity:1;fill-rule:nonzero;stroke:none" id="path258" inkscape:connector-curvature="0"></path><path d="m 9343.29,6029.77 c 16.1,35.27 82.88,45.87 87.75,-6.77 1.12,-8.89 -3.78,-26.9 -3.56,-35.84 1.54,-62.53 6.79,-129.45 4.73,-191.18 -2.91,-98.41 28.11,-195.98 -10.78,-285.44 -11.82,-28.02 -43.11,-27.91 -69.36,-15.14 -13.61,8.6 -19.53,30.81 -14.62,48.81 23.72,89.08 13.46,178.24 15.61,271.26 0.9,71.54 -39.5,150.99 -9.77,214.3" style="fill:#231f20;fill-opacity:1;fill-rule:nonzero;stroke:none" id="path260" inkscape:connector-curvature="0"></path><path d="m 9511.58,5983.89 c 27.3,16.77 63.95,16.78 80.61,-6.03 16.67,-23.74 -6.45,-64.54 -22.32,-73.87 -20.28,-11.23 -48.05,-8.35 -69.19,14.37 -14.74,17.52 -1.41,57.19 10.9,65.53 z m -14.68,-165.75 c 11.04,23.52 42.12,32.34 69.21,21.39 16.26,-6.76 35.53,-26.83 20.73,-42.4 -26.71,-40 -9.68,-78.91 -20.41,-114.05 -14.13,-43.26 13.63,-81.9 3.1,-125.06 0.08,-3.58 -4.18,-11.73 -7.75,-11.82 -27.51,-8.73 -61.37,-13.14 -70.99,14.33 -16.45,50.54 -6.17,105.34 -7.43,155.36 -0.88,35.73 -1.75,70.58 13.54,102.25" style="fill:#231f20;fill-opacity:1;fill-rule:nonzero;stroke:none" id="path262" inkscape:connector-curvature="0"></path><path d="m 9819.63,5710.83 c -51.35,-20.94 -141.94,-7.99 -141.83,-84.88 0.08,-39.33 126.54,-55.86 133.26,-38.7 6.92,45.76 29.38,76.71 8.57,123.58 z M 9800.45,5511 c -63.73,10.04 -135.12,4.7 -172.33,63.66 -24.93,31.56 -16.67,95.24 4.94,125.28 69.94,99.18 196.67,71.93 198.39,74.65 7.73,12.71 12.09,53.06 -7.65,56.14 -53.01,10.3 -85.46,-14.64 -132.4,-31.91 -35.43,-13.38 -45.29,58.79 -37.44,67.04 63.23,45.36 195.75,73.68 238.03,-9.3 37.62,-75.06 -3.39,-152.06 -7.58,-235.31 -2.21,-54.58 -4.62,-173.54 -54.58,-141.71 -15.44,9.46 -16.89,31.78 -29.38,31.46" style="fill:#231f20;fill-opacity:1;fill-rule:nonzero;stroke:none" id="path264" inkscape:connector-curvature="0"></path><path d="m 10183.6,5706.45 c -3.3,60.72 -100.9,100.3 -165.9,89.77 1.6,-65.24 3.4,-135.81 28.2,-200.46 60.7,5.98 141.9,45.54 137.7,110.69 z M 9959,5532.82 c -11.91,83.72 -4.06,163.49 -24.9,247 -5.72,14.17 -19.59,32.59 -15.57,51.47 4.24,9.03 13.93,14.64 18.19,23.69 3.05,56.41 -10.82,111.48 0.26,168.97 5.56,27.85 45.62,70.86 69.62,39.28 52.2,-50.57 -20.05,-127.45 18.2,-191.75 99.3,-2.02 203,-36.98 237.4,-130 21.1,-55.79 -15.7,-121.97 -61.3,-156.19 -64.1,-48.07 -138.1,-92.8 -217.96,-80.5 -8.98,1.58 -19.23,18.31 -23.94,28.03" style="fill:#231f20;fill-opacity:1;fill-rule:nonzero;stroke:none" id="path266" inkscape:connector-curvature="0"></path><path d="m 10333.5,6004.28 c 27.3,16.78 63.9,16.79 80.6,-6.03 16.7,-23.73 -6.5,-64.54 -22.3,-73.86 -20.3,-11.23 -48.1,-8.35 -69.2,14.37 -14.8,17.52 -1.4,57.18 10.9,65.52 z m -14.7,-165.74 c 11,23.51 42.1,32.34 69.2,21.39 16.3,-6.76 35.5,-26.83 20.7,-42.41 -26.7,-39.99 -9.6,-78.91 -20.4,-114.05 -14.1,-43.25 13.7,-81.9 3.1,-125.06 0.1,-3.58 -4.2,-11.73 -7.7,-11.81 -27.5,-8.73 -61.4,-13.15 -71,14.33 -16.5,50.55 -6.2,105.34 -7.4,155.36 -0.9,35.73 -1.8,70.58 13.5,102.25" style="fill:#231f20;fill-opacity:1;fill-rule:nonzero;stroke:none" id="path268" inkscape:connector-curvature="0"></path><path d="m 10453.7,6057.32 c 16.1,35.28 82.9,45.88 87.8,-6.76 1.1,-8.9 -3.8,-26.91 -3.6,-35.85 1.6,-62.53 6.8,-129.44 4.8,-191.18 -2.9,-98.39 28.1,-195.98 -10.8,-285.43 -11.8,-28.02 -43.1,-27.91 -69.4,-15.15 -13.6,8.61 -19.5,30.81 -14.6,48.82 23.7,89.07 13.5,178.23 15.6,271.27 0.9,71.53 -39.5,150.98 -9.8,214.28" style="fill:#231f20;fill-opacity:1;fill-rule:nonzero;stroke:none" id="path270" inkscape:connector-curvature="0"></path><path d="m 10622,6011.44 c 27.3,16.78 64,16.79 80.6,-6.02 16.7,-23.74 -6.4,-64.55 -22.3,-73.87 -20.3,-11.23 -48,-8.34 -69.2,14.37 -14.7,17.52 -1.4,57.19 10.9,65.52 z m -14.6,-165.73 c 11,23.5 42.1,32.33 69.2,21.38 16.2,-6.76 35.5,-26.83 20.7,-42.41 -26.7,-39.99 -9.7,-78.9 -20.4,-114.04 -14.1,-43.25 13.6,-81.9 3.1,-125.06 0.1,-3.58 -4.2,-11.73 -7.8,-11.83 -27.5,-8.72 -61.3,-13.14 -71,14.34 -16.4,50.55 -6.1,105.34 -7.4,155.36 -0.9,35.73 -1.7,70.58 13.6,102.26" style="fill:#231f20;fill-opacity:1;fill-rule:nonzero;stroke:none" id="path272" inkscape:connector-curvature="0"></path><path d="m 10859.7,6014.67 c 3.4,42.99 59.7,44.39 94.2,23.79 4.6,-4.36 9.4,-17.65 5.2,-30.26 -24.5,-56.93 -31.8,-122.37 -30.3,-183.12 48.1,5.65 142.3,30.35 126.7,-26.37 -12.3,-44.11 -92.9,-39.85 -140.2,-41.02 -6.7,-56.48 28.9,-301.45 26.7,-357.82 -0.4,-17 -12.6,-30.71 -30.5,-31.16 -21.4,-0.53 -30.5,5.5 -38.2,27.66 -20,50.47 -21.1,309.69 -48.2,356.4 -33.3,-26.75 -97.1,-49.79 -115.3,-1.98 -4.7,12.4 8.2,30.61 21.4,39.87 33.5,17.83 81.9,14.55 102.7,41 16.4,21.85 11,61.06 14.7,91.54 3.7,31.38 8.3,60.99 11.1,91.47" style="fill:#231f20;fill-opacity:1;fill-rule:nonzero;stroke:none" id="path274" inkscape:connector-curvature="0"></path><path d="m 11093,5945.35 c 17.2,27.26 64.4,32.01 79.5,1.98 22.5,-44.13 6.9,-97.27 17.1,-149.76 4.8,-13.29 13.4,0.34 17.8,4.91 25.3,57.85 41.6,124.4 93.5,156.98 22,13.07 78.5,7.31 58.1,-34.32 -43.4,-88.68 -106.5,-175.17 -111.9,-280.81 -3.9,-62.66 -46.9,-165.64 -89.3,-222.13 -31.2,-40.11 -109.7,-46.52 -133.1,-3.29 -14.1,26.46 -27.6,65.46 2.4,84.08 22,13.97 52.9,-7.62 58,-33.41 61.3,49.8 51.2,64.73 65.3,141.08 8.7,48.49 -33.4,87.67 -39,131.34 -5.7,49.02 -15.7,92.57 -21.4,141.6 -2.3,21.4 -10.1,48.03 3,61.75" style="fill:#231f20;fill-opacity:1;fill-rule:nonzero;stroke:none" id="path276" inkscape:connector-curvature="0"></path></g></g></svg> 